<svg xmlns="http://www.w3.org/2000/svg" xmlns:xlink="http://www.w3.org/1999/xlink" width="1000" zoomAndPan="magnify" viewBox="0 0 750 749.999995" height="1000" preserveAspectRatio="xMidYMid meet" version="1.0"><defs><g/><clipPath id="50fc4139a1"><path d="M 236.582031 245.511719 L 513.332031 245.511719 L 513.332031 522.261719 L 236.582031 522.261719 Z M 236.582031 245.511719 " clip-rule="nonzero"/></clipPath><clipPath id="b7242f4124"><path d="M 66.121094 75 L 684.121094 75 L 684.121094 693 L 66.121094 693 Z M 66.121094 75 " clip-rule="nonzero"/></clipPath><clipPath id="6e47ab6c18"><path d="M 375.121094 75 C 204.464844 75 66.121094 213.34375 66.121094 384 C 66.121094 554.65625 204.464844 693 375.121094 693 C 545.777344 693 684.121094 554.65625 684.121094 384 C 684.121094 213.34375 545.777344 75 375.121094 75 " clip-rule="nonzero"/></clipPath><clipPath id="09e4ee021a"><path d="M 28.96875 489.222656 L 182.191406 489.222656 L 182.191406 555.476562 L 28.96875 555.476562 Z M 28.96875 489.222656 " clip-rule="nonzero"/></clipPath><clipPath id="995cb063c2"><path d="M 51.46875 489.222656 L 159.691406 489.222656 C 165.660156 489.222656 171.382812 491.59375 175.601562 495.8125 C 179.820312 500.03125 182.191406 505.753906 182.191406 511.722656 L 182.191406 532.976562 C 182.191406 538.945312 179.820312 544.667969 175.601562 548.886719 C 171.382812 553.105469 165.660156 555.476562 159.691406 555.476562 L 51.46875 555.476562 C 45.5 555.476562 39.777344 553.105469 35.558594 548.886719 C 31.339844 544.667969 28.96875 538.945312 28.96875 532.976562 L 28.96875 511.722656 C 28.96875 505.753906 31.339844 500.03125 35.558594 495.8125 C 39.777344 491.59375 45.5 489.222656 51.46875 489.222656 " clip-rule="nonzero"/></clipPath><clipPath id="1d945be7ef"><path d="M 571.105469 489.222656 L 724.332031 489.222656 L 724.332031 555.476562 L 571.105469 555.476562 Z M 571.105469 489.222656 " clip-rule="nonzero"/></clipPath><clipPath id="a90fa52066"><path d="M 593.605469 489.222656 L 701.832031 489.222656 C 707.800781 489.222656 713.523438 491.59375 717.742188 495.8125 C 721.960938 500.03125 724.332031 505.753906 724.332031 511.722656 L 724.332031 532.976562 C 724.332031 538.945312 721.960938 544.667969 717.742188 548.886719 C 713.523438 553.105469 707.800781 555.476562 701.832031 555.476562 L 593.605469 555.476562 C 587.640625 555.476562 581.917969 553.105469 577.695312 548.886719 C 573.476562 544.667969 571.105469 538.945312 571.105469 532.976562 L 571.105469 511.722656 C 571.105469 505.753906 573.476562 500.03125 577.695312 495.8125 C 581.917969 491.59375 587.640625 489.222656 593.605469 489.222656 " clip-rule="nonzero"/></clipPath><clipPath id="12715781d1"><path d="M 287.152344 51.328125 L 440.378906 51.328125 L 440.378906 117.582031 L 287.152344 117.582031 Z M 287.152344 51.328125 " clip-rule="nonzero"/></clipPath><clipPath id="d7d6e87fcf"><path d="M 309.652344 51.328125 L 417.878906 51.328125 C 423.84375 51.328125 429.566406 53.699219 433.789062 57.917969 C 438.007812 62.136719 440.378906 67.863281 440.378906 73.828125 L 440.378906 95.082031 C 440.378906 101.050781 438.007812 106.773438 433.789062 110.992188 C 429.566406 115.210938 423.84375 117.582031 417.878906 117.582031 L 309.652344 117.582031 C 303.6875 117.582031 297.960938 115.210938 293.742188 110.992188 C 289.523438 106.773438 287.152344 101.050781 287.152344 95.082031 L 287.152344 73.828125 C 287.152344 67.863281 289.523438 62.136719 293.742188 57.917969 C 297.960938 53.699219 303.6875 51.328125 309.652344 51.328125 " clip-rule="nonzero"/></clipPath></defs><path fill="#154c79" d="M 396.195312 384.050781 C 396.195312 384.75 396.160156 385.441406 396.089844 386.132812 C 396.023438 386.828125 395.921875 387.511719 395.785156 388.195312 C 395.648438 388.878906 395.480469 389.550781 395.277344 390.21875 C 395.078125 390.882812 394.84375 391.539062 394.578125 392.179688 C 394.3125 392.824219 394.015625 393.449219 393.6875 394.0625 C 393.359375 394.675781 393 395.273438 392.613281 395.851562 C 392.226562 396.429688 391.8125 396.988281 391.371094 397.527344 C 390.929688 398.0625 390.464844 398.578125 389.972656 399.070312 C 389.480469 399.5625 388.964844 400.027344 388.429688 400.46875 C 387.890625 400.910156 387.332031 401.324219 386.753906 401.710938 C 386.175781 402.097656 385.582031 402.453125 384.96875 402.78125 C 384.355469 403.109375 383.726562 403.40625 383.082031 403.671875 C 382.441406 403.941406 381.785156 404.171875 381.121094 404.375 C 380.457031 404.578125 379.78125 404.746094 379.097656 404.882812 C 378.417969 405.015625 377.730469 405.121094 377.039062 405.1875 C 376.34375 405.257812 375.652344 405.289062 374.957031 405.289062 C 374.261719 405.289062 373.566406 405.257812 372.875 405.1875 C 372.183594 405.121094 371.496094 405.015625 370.8125 404.882812 C 370.128906 404.746094 369.457031 404.578125 368.792969 404.375 C 368.125 404.171875 367.472656 403.941406 366.828125 403.671875 C 366.1875 403.40625 365.558594 403.109375 364.945312 402.78125 C 364.332031 402.453125 363.734375 402.097656 363.15625 401.710938 C 362.578125 401.324219 362.019531 400.910156 361.484375 400.46875 C 360.945312 400.027344 360.429688 399.5625 359.9375 399.070312 C 359.445312 398.578125 358.980469 398.0625 358.539062 397.527344 C 358.097656 396.988281 357.683594 396.429688 357.296875 395.851562 C 356.910156 395.273438 356.554688 394.675781 356.226562 394.0625 C 355.898438 393.449219 355.601562 392.824219 355.335938 392.179688 C 355.070312 391.539062 354.835938 390.882812 354.632812 390.21875 C 354.429688 389.550781 354.261719 388.878906 354.125 388.195312 C 353.992188 387.511719 353.890625 386.828125 353.820312 386.132812 C 353.753906 385.441406 353.71875 384.75 353.71875 384.050781 C 353.71875 383.355469 353.753906 382.664062 353.820312 381.972656 C 353.890625 381.277344 353.992188 380.589844 354.125 379.910156 C 354.261719 379.226562 354.429688 378.554688 354.632812 377.886719 C 354.835938 377.222656 355.070312 376.566406 355.335938 375.925781 C 355.601562 375.28125 355.898438 374.65625 356.226562 374.042969 C 356.554688 373.429688 356.910156 372.832031 357.296875 372.253906 C 357.683594 371.675781 358.097656 371.117188 358.539062 370.578125 C 358.980469 370.042969 359.445312 369.527344 359.9375 369.035156 C 360.429688 368.542969 360.945312 368.078125 361.484375 367.636719 C 362.019531 367.195312 362.578125 366.78125 363.15625 366.394531 C 363.734375 366.007812 364.332031 365.652344 364.945312 365.324219 C 365.558594 364.996094 366.1875 364.699219 366.828125 364.433594 C 367.472656 364.164062 368.125 363.929688 368.792969 363.730469 C 369.457031 363.527344 370.128906 363.359375 370.8125 363.222656 C 371.496094 363.085938 372.183594 362.984375 372.875 362.917969 C 373.566406 362.847656 374.261719 362.816406 374.957031 362.816406 C 375.652344 362.816406 376.34375 362.847656 377.039062 362.917969 C 377.730469 362.984375 378.417969 363.085938 379.097656 363.222656 C 379.78125 363.359375 380.457031 363.527344 381.121094 363.730469 C 381.785156 363.929688 382.441406 364.164062 383.082031 364.433594 C 383.726562 364.699219 384.355469 364.996094 384.96875 365.324219 C 385.582031 365.652344 386.175781 366.007812 386.753906 366.394531 C 387.332031 366.78125 387.890625 367.195312 388.429688 367.636719 C 388.964844 368.078125 389.480469 368.542969 389.972656 369.035156 C 390.464844 369.527344 390.929688 370.042969 391.371094 370.578125 C 391.8125 371.117188 392.226562 371.675781 392.613281 372.253906 C 393 372.832031 393.359375 373.429688 393.6875 374.042969 C 394.015625 374.65625 394.3125 375.28125 394.578125 375.925781 C 394.84375 376.566406 395.078125 377.222656 395.277344 377.886719 C 395.480469 378.554688 395.648438 379.226562 395.785156 379.910156 C 395.921875 380.589844 396.023438 381.277344 396.089844 381.972656 C 396.160156 382.664062 396.195312 383.355469 396.195312 384.050781 Z M 396.195312 384.050781 " fill-opacity="1" fill-rule="nonzero"/><g clip-path="url(#50fc4139a1)"><path fill="#154c79" d="M 513.332031 379.074219 L 481.808594 379.074219 C 479.152344 324.324219 434.6875 279.855469 379.933594 277.535156 L 379.933594 245.675781 L 369.980469 245.675781 L 369.980469 277.203125 C 315.226562 279.855469 270.761719 324.324219 268.4375 379.074219 L 236.582031 379.074219 L 236.582031 389.03125 L 268.105469 389.03125 C 270.761719 443.78125 315.226562 488.25 369.980469 490.570312 L 369.980469 522.097656 L 379.933594 522.097656 L 379.933594 490.570312 C 434.6875 488.25 479.152344 443.78125 481.476562 389.03125 L 513 389.03125 Z M 468.203125 379.074219 L 448.957031 379.074219 C 446.632812 341.910156 416.765625 312.375 379.601562 309.722656 L 379.601562 290.476562 C 427.386719 293.128906 465.878906 331.621094 468.203125 379.074219 Z M 439.996094 389.03125 C 437.671875 420.886719 412.121094 446.4375 379.933594 449.09375 L 379.933594 440.464844 L 369.980469 440.464844 L 369.980469 449.09375 C 338.121094 446.769531 312.570312 421.21875 309.917969 389.03125 L 318.542969 389.03125 L 318.542969 379.074219 L 309.917969 379.074219 C 312.238281 347.21875 337.789062 321.667969 369.980469 319.011719 L 369.980469 327.640625 L 379.933594 327.640625 L 379.933594 319.011719 C 411.789062 321.335938 437.339844 346.886719 439.996094 379.074219 L 431.367188 379.074219 L 431.367188 389.03125 Z M 369.980469 290.808594 L 369.980469 310.054688 C 332.8125 312.375 303.28125 342.242188 300.625 379.40625 L 281.378906 379.40625 C 284.035156 331.621094 322.527344 293.128906 369.980469 290.808594 Z M 281.710938 389.03125 L 300.957031 389.03125 C 303.28125 426.195312 333.144531 455.730469 370.308594 458.382812 L 370.308594 477.628906 C 322.527344 474.976562 284.035156 436.480469 281.710938 389.03125 Z M 379.933594 477.296875 L 379.933594 458.050781 C 417.097656 455.730469 446.632812 425.863281 449.285156 388.699219 L 468.535156 388.699219 C 465.878906 436.480469 427.386719 474.976562 379.933594 477.296875 Z M 379.933594 477.296875 " fill-opacity="1" fill-rule="nonzero"/></g><g clip-path="url(#b7242f4124)"><g clip-path="url(#6e47ab6c18)"><path stroke-linecap="butt" transform="matrix(0.750171, 0, 0, 0.750171, 66.122416, 75.000016)" fill="none" stroke-linejoin="miter" d="M 411.904488 -0.0000217884 C 184.414597 -0.0000217884 -0.0017629 184.416339 -0.0017629 411.906229 C -0.0017629 639.396119 184.414597 823.812479 411.904488 823.812479 C 639.394378 823.812479 823.810738 639.396119 823.810738 411.906229 C 823.810738 184.416339 639.394378 -0.0000217884 411.904488 -0.0000217884 " stroke="#154c79" stroke-width="26" stroke-opacity="1" stroke-miterlimit="4"/></g></g><g clip-path="url(#09e4ee021a)"><g clip-path="url(#995cb063c2)"><path fill="#ffffff" d="M 28.96875 489.222656 L 182.191406 489.222656 L 182.191406 555.476562 L 28.96875 555.476562 Z M 28.96875 489.222656 " fill-opacity="1" fill-rule="nonzero"/></g></g><g fill="#000000" fill-opacity="1"><g transform="translate(47.935761, 515.609707)"><g><path d="M 2.046875 -12.59375 L 3.390625 -12.59375 L 3.390625 -1.15625 L 10.4375 -1.15625 L 10.4375 0 L 2.046875 0 Z M 2.046875 -12.59375 "/></g></g></g><g fill="#000000" fill-opacity="1"><g transform="translate(58.537728, 515.609707)"><g><path d="M 10.03125 -4.34375 L 2.109375 -4.34375 C 2.179688 -3.351562 2.554688 -2.554688 3.234375 -1.953125 C 3.921875 -1.347656 4.785156 -1.046875 5.828125 -1.046875 C 6.421875 -1.046875 6.960938 -1.148438 7.453125 -1.359375 C 7.941406 -1.566406 8.367188 -1.875 8.734375 -2.28125 L 9.453125 -1.453125 C 9.023438 -0.953125 8.5 -0.566406 7.875 -0.296875 C 7.25 -0.0351562 6.554688 0.09375 5.796875 0.09375 C 4.828125 0.09375 3.96875 -0.113281 3.21875 -0.53125 C 2.46875 -0.945312 1.878906 -1.519531 1.453125 -2.25 C 1.035156 -2.976562 0.828125 -3.804688 0.828125 -4.734375 C 0.828125 -5.660156 1.023438 -6.488281 1.421875 -7.21875 C 1.828125 -7.945312 2.378906 -8.515625 3.078125 -8.921875 C 3.785156 -9.335938 4.578125 -9.546875 5.453125 -9.546875 C 6.328125 -9.546875 7.113281 -9.335938 7.8125 -8.921875 C 8.507812 -8.515625 9.054688 -7.945312 9.453125 -7.21875 C 9.847656 -6.5 10.046875 -5.671875 10.046875 -4.734375 Z M 5.453125 -8.4375 C 4.546875 -8.4375 3.78125 -8.144531 3.15625 -7.5625 C 2.539062 -6.988281 2.191406 -6.234375 2.109375 -5.296875 L 8.8125 -5.296875 C 8.726562 -6.234375 8.378906 -6.988281 7.765625 -7.5625 C 7.148438 -8.144531 6.378906 -8.4375 5.453125 -8.4375 Z M 5.453125 -8.4375 "/></g></g></g><g fill="#000000" fill-opacity="1"><g transform="translate(69.409695, 515.609707)"><g><path d="M 4.3125 0.09375 C 3.550781 0.09375 2.816406 -0.015625 2.109375 -0.234375 C 1.410156 -0.460938 0.863281 -0.742188 0.46875 -1.078125 L 1.046875 -2.09375 C 1.441406 -1.78125 1.9375 -1.523438 2.53125 -1.328125 C 3.132812 -1.128906 3.757812 -1.03125 4.40625 -1.03125 C 5.269531 -1.03125 5.910156 -1.164062 6.328125 -1.4375 C 6.742188 -1.707031 6.953125 -2.085938 6.953125 -2.578125 C 6.953125 -2.921875 6.835938 -3.191406 6.609375 -3.390625 C 6.378906 -3.585938 6.085938 -3.738281 5.734375 -3.84375 C 5.390625 -3.945312 4.929688 -4.046875 4.359375 -4.140625 C 3.585938 -4.285156 2.96875 -4.429688 2.5 -4.578125 C 2.03125 -4.734375 1.628906 -4.988281 1.296875 -5.34375 C 0.972656 -5.707031 0.8125 -6.207031 0.8125 -6.84375 C 0.8125 -7.632812 1.140625 -8.28125 1.796875 -8.78125 C 2.460938 -9.289062 3.378906 -9.546875 4.546875 -9.546875 C 5.160156 -9.546875 5.773438 -9.460938 6.390625 -9.296875 C 7.003906 -9.128906 7.507812 -8.914062 7.90625 -8.65625 L 7.34375 -7.625 C 6.5625 -8.164062 5.628906 -8.4375 4.546875 -8.4375 C 3.734375 -8.4375 3.117188 -8.289062 2.703125 -8 C 2.296875 -7.71875 2.09375 -7.34375 2.09375 -6.875 C 2.09375 -6.519531 2.207031 -6.234375 2.4375 -6.015625 C 2.675781 -5.796875 2.96875 -5.632812 3.3125 -5.53125 C 3.65625 -5.425781 4.132812 -5.320312 4.75 -5.21875 C 5.507812 -5.070312 6.113281 -4.925781 6.5625 -4.78125 C 7.019531 -4.644531 7.410156 -4.398438 7.734375 -4.046875 C 8.054688 -3.703125 8.21875 -3.222656 8.21875 -2.609375 C 8.21875 -1.785156 7.875 -1.128906 7.1875 -0.640625 C 6.5 -0.148438 5.539062 0.09375 4.3125 0.09375 Z M 4.3125 0.09375 "/></g></g></g><g fill="#000000" fill-opacity="1"><g transform="translate(78.211666, 515.609707)"><g/></g></g><g fill="#000000" fill-opacity="1"><g transform="translate(82.92765, 515.609707)"><g><path d="M 13.59375 -9.546875 C 14.78125 -9.546875 15.710938 -9.203125 16.390625 -8.515625 C 17.066406 -7.828125 17.40625 -6.816406 17.40625 -5.484375 L 17.40625 0 L 16.125 0 L 16.125 -5.359375 C 16.125 -6.347656 15.882812 -7.097656 15.40625 -7.609375 C 14.9375 -8.128906 14.269531 -8.390625 13.40625 -8.390625 C 12.425781 -8.390625 11.648438 -8.082031 11.078125 -7.46875 C 10.515625 -6.863281 10.234375 -6.03125 10.234375 -4.96875 L 10.234375 0 L 8.96875 0 L 8.96875 -5.359375 C 8.96875 -6.347656 8.726562 -7.097656 8.25 -7.609375 C 7.78125 -8.128906 7.109375 -8.390625 6.234375 -8.390625 C 5.253906 -8.390625 4.476562 -8.082031 3.90625 -7.46875 C 3.34375 -6.863281 3.0625 -6.03125 3.0625 -4.96875 L 3.0625 0 L 1.78125 0 L 1.78125 -9.46875 L 3 -9.46875 L 3 -7.734375 C 3.34375 -8.316406 3.8125 -8.765625 4.40625 -9.078125 C 5.007812 -9.390625 5.703125 -9.546875 6.484375 -9.546875 C 7.273438 -9.546875 7.957031 -9.375 8.53125 -9.03125 C 9.113281 -8.695312 9.550781 -8.203125 9.84375 -7.546875 C 10.195312 -8.171875 10.695312 -8.660156 11.34375 -9.015625 C 12 -9.367188 12.75 -9.546875 13.59375 -9.546875 Z M 13.59375 -9.546875 "/></g></g></g><g fill="#000000" fill-opacity="1"><g transform="translate(102.025595, 515.609707)"><g><path d="M 5.09375 -9.546875 C 6.332031 -9.546875 7.28125 -9.234375 7.9375 -8.609375 C 8.59375 -7.992188 8.921875 -7.082031 8.921875 -5.875 L 8.921875 0 L 7.703125 0 L 7.703125 -1.46875 C 7.410156 -0.976562 6.984375 -0.59375 6.421875 -0.3125 C 5.867188 -0.0390625 5.210938 0.09375 4.453125 0.09375 C 3.390625 0.09375 2.546875 -0.15625 1.921875 -0.65625 C 1.296875 -1.164062 0.984375 -1.832031 0.984375 -2.65625 C 0.984375 -3.46875 1.273438 -4.117188 1.859375 -4.609375 C 2.441406 -5.097656 3.367188 -5.34375 4.640625 -5.34375 L 7.65625 -5.34375 L 7.65625 -5.921875 C 7.65625 -6.734375 7.425781 -7.351562 6.96875 -7.78125 C 6.507812 -8.207031 5.84375 -8.421875 4.96875 -8.421875 C 4.363281 -8.421875 3.785156 -8.320312 3.234375 -8.125 C 2.679688 -7.925781 2.207031 -7.65625 1.8125 -7.3125 L 1.234375 -8.265625 C 1.722656 -8.671875 2.300781 -8.984375 2.96875 -9.203125 C 3.644531 -9.429688 4.351562 -9.546875 5.09375 -9.546875 Z M 4.640625 -0.921875 C 5.359375 -0.921875 5.972656 -1.082031 6.484375 -1.40625 C 7.003906 -1.738281 7.394531 -2.21875 7.65625 -2.84375 L 7.65625 -4.390625 L 4.6875 -4.390625 C 3.0625 -4.390625 2.25 -3.828125 2.25 -2.703125 C 2.25 -2.148438 2.457031 -1.710938 2.875 -1.390625 C 3.300781 -1.078125 3.890625 -0.921875 4.640625 -0.921875 Z M 4.640625 -0.921875 "/></g></g></g><g fill="#000000" fill-opacity="1"><g transform="translate(112.645563, 515.609707)"><g><path d="M 1.78125 -13.359375 L 3.0625 -13.359375 L 3.0625 0 L 1.78125 0 Z M 1.78125 -13.359375 "/></g></g></g><g fill="#000000" fill-opacity="1"><g transform="translate(117.487546, 515.609707)"><g><path d="M 5.09375 -9.546875 C 6.332031 -9.546875 7.28125 -9.234375 7.9375 -8.609375 C 8.59375 -7.992188 8.921875 -7.082031 8.921875 -5.875 L 8.921875 0 L 7.703125 0 L 7.703125 -1.46875 C 7.410156 -0.976562 6.984375 -0.59375 6.421875 -0.3125 C 5.867188 -0.0390625 5.210938 0.09375 4.453125 0.09375 C 3.390625 0.09375 2.546875 -0.15625 1.921875 -0.65625 C 1.296875 -1.164062 0.984375 -1.832031 0.984375 -2.65625 C 0.984375 -3.46875 1.273438 -4.117188 1.859375 -4.609375 C 2.441406 -5.097656 3.367188 -5.34375 4.640625 -5.34375 L 7.65625 -5.34375 L 7.65625 -5.921875 C 7.65625 -6.734375 7.425781 -7.351562 6.96875 -7.78125 C 6.507812 -8.207031 5.84375 -8.421875 4.96875 -8.421875 C 4.363281 -8.421875 3.785156 -8.320312 3.234375 -8.125 C 2.679688 -7.925781 2.207031 -7.65625 1.8125 -7.3125 L 1.234375 -8.265625 C 1.722656 -8.671875 2.300781 -8.984375 2.96875 -9.203125 C 3.644531 -9.429688 4.351562 -9.546875 5.09375 -9.546875 Z M 4.640625 -0.921875 C 5.359375 -0.921875 5.972656 -1.082031 6.484375 -1.40625 C 7.003906 -1.738281 7.394531 -2.21875 7.65625 -2.84375 L 7.65625 -4.390625 L 4.6875 -4.390625 C 3.0625 -4.390625 2.25 -3.828125 2.25 -2.703125 C 2.25 -2.148438 2.457031 -1.710938 2.875 -1.390625 C 3.300781 -1.078125 3.890625 -0.921875 4.640625 -0.921875 Z M 4.640625 -0.921875 "/></g></g></g><g fill="#000000" fill-opacity="1"><g transform="translate(128.107514, 515.609707)"><g><path d="M 10.421875 -13.359375 L 10.421875 0 L 9.203125 0 L 9.203125 -1.875 C 8.816406 -1.238281 8.304688 -0.75 7.671875 -0.40625 C 7.046875 -0.0703125 6.335938 0.09375 5.546875 0.09375 C 4.660156 0.09375 3.851562 -0.109375 3.125 -0.515625 C 2.40625 -0.929688 1.84375 -1.503906 1.4375 -2.234375 C 1.03125 -2.960938 0.828125 -3.796875 0.828125 -4.734375 C 0.828125 -5.671875 1.03125 -6.503906 1.4375 -7.234375 C 1.84375 -7.960938 2.40625 -8.53125 3.125 -8.9375 C 3.851562 -9.34375 4.660156 -9.546875 5.546875 -9.546875 C 6.316406 -9.546875 7.007812 -9.382812 7.625 -9.0625 C 8.238281 -8.75 8.742188 -8.285156 9.140625 -7.671875 L 9.140625 -13.359375 Z M 5.65625 -1.046875 C 6.3125 -1.046875 6.90625 -1.195312 7.4375 -1.5 C 7.976562 -1.8125 8.398438 -2.25 8.703125 -2.8125 C 9.003906 -3.375 9.15625 -4.015625 9.15625 -4.734375 C 9.15625 -5.453125 9.003906 -6.09375 8.703125 -6.65625 C 8.398438 -7.21875 7.976562 -7.648438 7.4375 -7.953125 C 6.90625 -8.265625 6.3125 -8.421875 5.65625 -8.421875 C 4.976562 -8.421875 4.375 -8.265625 3.84375 -7.953125 C 3.3125 -7.648438 2.890625 -7.21875 2.578125 -6.65625 C 2.273438 -6.09375 2.125 -5.453125 2.125 -4.734375 C 2.125 -4.015625 2.273438 -3.375 2.578125 -2.8125 C 2.890625 -2.25 3.3125 -1.8125 3.84375 -1.5 C 4.375 -1.195312 4.976562 -1.046875 5.65625 -1.046875 Z M 5.65625 -1.046875 "/></g></g></g><g fill="#000000" fill-opacity="1"><g transform="translate(140.311482, 515.609707)"><g><path d="M 10.03125 -4.34375 L 2.109375 -4.34375 C 2.179688 -3.351562 2.554688 -2.554688 3.234375 -1.953125 C 3.921875 -1.347656 4.785156 -1.046875 5.828125 -1.046875 C 6.421875 -1.046875 6.960938 -1.148438 7.453125 -1.359375 C 7.941406 -1.566406 8.367188 -1.875 8.734375 -2.28125 L 9.453125 -1.453125 C 9.023438 -0.953125 8.5 -0.566406 7.875 -0.296875 C 7.25 -0.0351562 6.554688 0.09375 5.796875 0.09375 C 4.828125 0.09375 3.96875 -0.113281 3.21875 -0.53125 C 2.46875 -0.945312 1.878906 -1.519531 1.453125 -2.25 C 1.035156 -2.976562 0.828125 -3.804688 0.828125 -4.734375 C 0.828125 -5.660156 1.023438 -6.488281 1.421875 -7.21875 C 1.828125 -7.945312 2.378906 -8.515625 3.078125 -8.921875 C 3.785156 -9.335938 4.578125 -9.546875 5.453125 -9.546875 C 6.328125 -9.546875 7.113281 -9.335938 7.8125 -8.921875 C 8.507812 -8.515625 9.054688 -7.945312 9.453125 -7.21875 C 9.847656 -6.5 10.046875 -5.671875 10.046875 -4.734375 Z M 5.453125 -8.4375 C 4.546875 -8.4375 3.78125 -8.144531 3.15625 -7.5625 C 2.539062 -6.988281 2.191406 -6.234375 2.109375 -5.296875 L 8.8125 -5.296875 C 8.726562 -6.234375 8.378906 -6.988281 7.765625 -7.5625 C 7.148438 -8.144531 6.378906 -8.4375 5.453125 -8.4375 Z M 5.453125 -8.4375 "/></g></g></g><g fill="#000000" fill-opacity="1"><g transform="translate(151.183448, 515.609707)"><g><path d="M 4.3125 0.09375 C 3.550781 0.09375 2.816406 -0.015625 2.109375 -0.234375 C 1.410156 -0.460938 0.863281 -0.742188 0.46875 -1.078125 L 1.046875 -2.09375 C 1.441406 -1.78125 1.9375 -1.523438 2.53125 -1.328125 C 3.132812 -1.128906 3.757812 -1.03125 4.40625 -1.03125 C 5.269531 -1.03125 5.910156 -1.164062 6.328125 -1.4375 C 6.742188 -1.707031 6.953125 -2.085938 6.953125 -2.578125 C 6.953125 -2.921875 6.835938 -3.191406 6.609375 -3.390625 C 6.378906 -3.585938 6.085938 -3.738281 5.734375 -3.84375 C 5.390625 -3.945312 4.929688 -4.046875 4.359375 -4.140625 C 3.585938 -4.285156 2.96875 -4.429688 2.5 -4.578125 C 2.03125 -4.734375 1.628906 -4.988281 1.296875 -5.34375 C 0.972656 -5.707031 0.8125 -6.207031 0.8125 -6.84375 C 0.8125 -7.632812 1.140625 -8.28125 1.796875 -8.78125 C 2.460938 -9.289062 3.378906 -9.546875 4.546875 -9.546875 C 5.160156 -9.546875 5.773438 -9.460938 6.390625 -9.296875 C 7.003906 -9.128906 7.507812 -8.914062 7.90625 -8.65625 L 7.34375 -7.625 C 6.5625 -8.164062 5.628906 -8.4375 4.546875 -8.4375 C 3.734375 -8.4375 3.117188 -8.289062 2.703125 -8 C 2.296875 -7.71875 2.09375 -7.34375 2.09375 -6.875 C 2.09375 -6.519531 2.207031 -6.234375 2.4375 -6.015625 C 2.675781 -5.796875 2.96875 -5.632812 3.3125 -5.53125 C 3.65625 -5.425781 4.132812 -5.320312 4.75 -5.21875 C 5.507812 -5.070312 6.113281 -4.925781 6.5625 -4.78125 C 7.019531 -4.644531 7.410156 -4.398438 7.734375 -4.046875 C 8.054688 -3.703125 8.21875 -3.222656 8.21875 -2.609375 C 8.21875 -1.785156 7.875 -1.128906 7.1875 -0.640625 C 6.5 -0.148438 5.539062 0.09375 4.3125 0.09375 Z M 4.3125 0.09375 "/></g></g></g><g fill="#000000" fill-opacity="1"><g transform="translate(53.033417, 540.359706)"><g><path d="M 5.703125 0.09375 C 4.765625 0.09375 3.925781 -0.109375 3.1875 -0.515625 C 2.457031 -0.929688 1.878906 -1.503906 1.453125 -2.234375 C 1.035156 -2.972656 0.828125 -3.804688 0.828125 -4.734375 C 0.828125 -5.660156 1.035156 -6.488281 1.453125 -7.21875 C 1.878906 -7.945312 2.457031 -8.515625 3.1875 -8.921875 C 3.925781 -9.335938 4.765625 -9.546875 5.703125 -9.546875 C 6.523438 -9.546875 7.253906 -9.382812 7.890625 -9.0625 C 8.535156 -8.75 9.039062 -8.285156 9.40625 -7.671875 L 8.453125 -7.015625 C 8.140625 -7.484375 7.742188 -7.832031 7.265625 -8.0625 C 6.785156 -8.300781 6.265625 -8.421875 5.703125 -8.421875 C 5.023438 -8.421875 4.410156 -8.265625 3.859375 -7.953125 C 3.316406 -7.648438 2.890625 -7.21875 2.578125 -6.65625 C 2.273438 -6.09375 2.125 -5.453125 2.125 -4.734375 C 2.125 -4.003906 2.273438 -3.359375 2.578125 -2.796875 C 2.890625 -2.242188 3.316406 -1.8125 3.859375 -1.5 C 4.410156 -1.195312 5.023438 -1.046875 5.703125 -1.046875 C 6.265625 -1.046875 6.785156 -1.160156 7.265625 -1.390625 C 7.742188 -1.617188 8.140625 -1.96875 8.453125 -2.4375 L 9.40625 -1.78125 C 9.039062 -1.164062 8.53125 -0.695312 7.875 -0.375 C 7.226562 -0.0625 6.503906 0.09375 5.703125 0.09375 Z M 5.703125 0.09375 "/></g></g></g><g fill="#000000" fill-opacity="1"><g transform="translate(63.167389, 540.359706)"><g><path d="M 6.609375 -9.546875 C 7.796875 -9.546875 8.738281 -9.195312 9.4375 -8.5 C 10.144531 -7.8125 10.5 -6.804688 10.5 -5.484375 L 10.5 0 L 9.21875 0 L 9.21875 -5.359375 C 9.21875 -6.347656 8.96875 -7.097656 8.46875 -7.609375 C 7.976562 -8.128906 7.28125 -8.390625 6.375 -8.390625 C 5.351562 -8.390625 4.546875 -8.082031 3.953125 -7.46875 C 3.359375 -6.863281 3.0625 -6.03125 3.0625 -4.96875 L 3.0625 0 L 1.78125 0 L 1.78125 -13.359375 L 3.0625 -13.359375 L 3.0625 -7.8125 C 3.40625 -8.363281 3.882812 -8.789062 4.5 -9.09375 C 5.113281 -9.394531 5.816406 -9.546875 6.609375 -9.546875 Z M 6.609375 -9.546875 "/></g></g></g><g fill="#000000" fill-opacity="1"><g transform="translate(75.353355, 540.359706)"><g><path d="M 3 -7.609375 C 3.300781 -8.242188 3.75 -8.722656 4.34375 -9.046875 C 4.9375 -9.378906 5.671875 -9.546875 6.546875 -9.546875 L 6.546875 -8.296875 L 6.25 -8.3125 C 5.25 -8.3125 4.46875 -8.003906 3.90625 -7.390625 C 3.34375 -6.785156 3.0625 -5.929688 3.0625 -4.828125 L 3.0625 0 L 1.78125 0 L 1.78125 -9.46875 L 3 -9.46875 Z M 3 -7.609375 "/></g></g></g><g fill="#000000" fill-opacity="1"><g transform="translate(82.571338, 540.359706)"><g><path d="M 5.65625 0.09375 C 4.738281 0.09375 3.914062 -0.113281 3.1875 -0.53125 C 2.457031 -0.945312 1.878906 -1.519531 1.453125 -2.25 C 1.035156 -2.976562 0.828125 -3.804688 0.828125 -4.734375 C 0.828125 -5.660156 1.035156 -6.488281 1.453125 -7.21875 C 1.878906 -7.945312 2.457031 -8.515625 3.1875 -8.921875 C 3.914062 -9.335938 4.738281 -9.546875 5.65625 -9.546875 C 6.5625 -9.546875 7.378906 -9.335938 8.109375 -8.921875 C 8.847656 -8.515625 9.421875 -7.945312 9.828125 -7.21875 C 10.242188 -6.488281 10.453125 -5.660156 10.453125 -4.734375 C 10.453125 -3.804688 10.242188 -2.976562 9.828125 -2.25 C 9.421875 -1.519531 8.847656 -0.945312 8.109375 -0.53125 C 7.378906 -0.113281 6.5625 0.09375 5.65625 0.09375 Z M 5.65625 -1.046875 C 6.320312 -1.046875 6.921875 -1.195312 7.453125 -1.5 C 7.992188 -1.8125 8.410156 -2.25 8.703125 -2.8125 C 9.003906 -3.375 9.15625 -4.015625 9.15625 -4.734375 C 9.15625 -5.453125 9.003906 -6.09375 8.703125 -6.65625 C 8.410156 -7.21875 7.992188 -7.648438 7.453125 -7.953125 C 6.921875 -8.265625 6.320312 -8.421875 5.65625 -8.421875 C 4.976562 -8.421875 4.375 -8.265625 3.84375 -7.953125 C 3.3125 -7.648438 2.890625 -7.21875 2.578125 -6.65625 C 2.273438 -6.09375 2.125 -5.453125 2.125 -4.734375 C 2.125 -4.015625 2.273438 -3.375 2.578125 -2.8125 C 2.890625 -2.25 3.3125 -1.8125 3.84375 -1.5 C 4.375 -1.195312 4.976562 -1.046875 5.65625 -1.046875 Z M 5.65625 -1.046875 "/></g></g></g><g fill="#000000" fill-opacity="1"><g transform="translate(93.857306, 540.359706)"><g><path d="M 6.609375 -9.546875 C 7.796875 -9.546875 8.738281 -9.195312 9.4375 -8.5 C 10.144531 -7.8125 10.5 -6.804688 10.5 -5.484375 L 10.5 0 L 9.21875 0 L 9.21875 -5.359375 C 9.21875 -6.347656 8.96875 -7.097656 8.46875 -7.609375 C 7.976562 -8.128906 7.28125 -8.390625 6.375 -8.390625 C 5.351562 -8.390625 4.546875 -8.082031 3.953125 -7.46875 C 3.359375 -6.863281 3.0625 -6.03125 3.0625 -4.96875 L 3.0625 0 L 1.78125 0 L 1.78125 -9.46875 L 3 -9.46875 L 3 -7.71875 C 3.351562 -8.300781 3.835938 -8.75 4.453125 -9.0625 C 5.066406 -9.382812 5.785156 -9.546875 6.609375 -9.546875 Z M 6.609375 -9.546875 "/></g></g></g><g fill="#000000" fill-opacity="1"><g transform="translate(106.043272, 540.359706)"><g><path d="M 1.78125 -9.46875 L 3.0625 -9.46875 L 3.0625 0 L 1.78125 0 Z M 2.421875 -11.53125 C 2.160156 -11.53125 1.9375 -11.617188 1.75 -11.796875 C 1.570312 -11.984375 1.484375 -12.203125 1.484375 -12.453125 C 1.484375 -12.691406 1.570312 -12.898438 1.75 -13.078125 C 1.9375 -13.265625 2.160156 -13.359375 2.421875 -13.359375 C 2.691406 -13.359375 2.914062 -13.269531 3.09375 -13.09375 C 3.269531 -12.914062 3.359375 -12.707031 3.359375 -12.46875 C 3.359375 -12.207031 3.269531 -11.984375 3.09375 -11.796875 C 2.914062 -11.617188 2.691406 -11.53125 2.421875 -11.53125 Z M 2.421875 -11.53125 "/></g></g></g><g fill="#000000" fill-opacity="1"><g transform="translate(110.885256, 540.359706)"><g><path d="M 10.421875 -9.46875 L 10.421875 3.484375 L 9.140625 3.484375 L 9.140625 -1.78125 C 8.742188 -1.164062 8.238281 -0.695312 7.625 -0.375 C 7.007812 -0.0625 6.316406 0.09375 5.546875 0.09375 C 4.640625 0.09375 3.828125 -0.101562 3.109375 -0.5 C 2.398438 -0.90625 1.84375 -1.472656 1.4375 -2.203125 C 1.03125 -2.941406 0.828125 -3.785156 0.828125 -4.734375 C 0.828125 -5.671875 1.03125 -6.503906 1.4375 -7.234375 C 1.84375 -7.960938 2.40625 -8.53125 3.125 -8.9375 C 3.851562 -9.34375 4.660156 -9.546875 5.546875 -9.546875 C 6.335938 -9.546875 7.046875 -9.375 7.671875 -9.03125 C 8.304688 -8.695312 8.816406 -8.21875 9.203125 -7.59375 L 9.203125 -9.46875 Z M 5.65625 -1.046875 C 6.3125 -1.046875 6.90625 -1.195312 7.4375 -1.5 C 7.976562 -1.8125 8.398438 -2.25 8.703125 -2.8125 C 9.003906 -3.375 9.15625 -4.015625 9.15625 -4.734375 C 9.15625 -5.453125 9.003906 -6.085938 8.703125 -6.640625 C 8.398438 -7.203125 7.976562 -7.640625 7.4375 -7.953125 C 6.90625 -8.265625 6.3125 -8.421875 5.65625 -8.421875 C 4.976562 -8.421875 4.375 -8.265625 3.84375 -7.953125 C 3.3125 -7.640625 2.890625 -7.203125 2.578125 -6.640625 C 2.273438 -6.085938 2.125 -5.453125 2.125 -4.734375 C 2.125 -4.015625 2.273438 -3.375 2.578125 -2.8125 C 2.890625 -2.25 3.3125 -1.8125 3.84375 -1.5 C 4.375 -1.195312 4.976562 -1.046875 5.65625 -1.046875 Z M 5.65625 -1.046875 "/></g></g></g><g fill="#000000" fill-opacity="1"><g transform="translate(123.089223, 540.359706)"><g><path d="M 10.3125 -9.46875 L 10.3125 0 L 9.09375 0 L 9.09375 -1.734375 C 8.757812 -1.148438 8.296875 -0.695312 7.703125 -0.375 C 7.117188 -0.0625 6.445312 0.09375 5.6875 0.09375 C 4.445312 0.09375 3.46875 -0.25 2.75 -0.9375 C 2.039062 -1.632812 1.6875 -2.648438 1.6875 -3.984375 L 1.6875 -9.46875 L 2.96875 -9.46875 L 2.96875 -4.109375 C 2.96875 -3.109375 3.210938 -2.347656 3.703125 -1.828125 C 4.203125 -1.316406 4.90625 -1.0625 5.8125 -1.0625 C 6.8125 -1.0625 7.597656 -1.363281 8.171875 -1.96875 C 8.742188 -2.570312 9.03125 -3.414062 9.03125 -4.5 L 9.03125 -9.46875 Z M 10.3125 -9.46875 "/></g></g></g><g fill="#000000" fill-opacity="1"><g transform="translate(135.203183, 540.359706)"><g><path d="M 10.03125 -4.34375 L 2.109375 -4.34375 C 2.179688 -3.351562 2.554688 -2.554688 3.234375 -1.953125 C 3.921875 -1.347656 4.785156 -1.046875 5.828125 -1.046875 C 6.421875 -1.046875 6.960938 -1.148438 7.453125 -1.359375 C 7.941406 -1.566406 8.367188 -1.875 8.734375 -2.28125 L 9.453125 -1.453125 C 9.023438 -0.953125 8.5 -0.566406 7.875 -0.296875 C 7.25 -0.0351562 6.554688 0.09375 5.796875 0.09375 C 4.828125 0.09375 3.96875 -0.113281 3.21875 -0.53125 C 2.46875 -0.945312 1.878906 -1.519531 1.453125 -2.25 C 1.035156 -2.976562 0.828125 -3.804688 0.828125 -4.734375 C 0.828125 -5.660156 1.023438 -6.488281 1.421875 -7.21875 C 1.828125 -7.945312 2.378906 -8.515625 3.078125 -8.921875 C 3.785156 -9.335938 4.578125 -9.546875 5.453125 -9.546875 C 6.328125 -9.546875 7.113281 -9.335938 7.8125 -8.921875 C 8.507812 -8.515625 9.054688 -7.945312 9.453125 -7.21875 C 9.847656 -6.5 10.046875 -5.671875 10.046875 -4.734375 Z M 5.453125 -8.4375 C 4.546875 -8.4375 3.78125 -8.144531 3.15625 -7.5625 C 2.539062 -6.988281 2.191406 -6.234375 2.109375 -5.296875 L 8.8125 -5.296875 C 8.726562 -6.234375 8.378906 -6.988281 7.765625 -7.5625 C 7.148438 -8.144531 6.378906 -8.4375 5.453125 -8.4375 Z M 5.453125 -8.4375 "/></g></g></g><g fill="#000000" fill-opacity="1"><g transform="translate(146.07515, 540.359706)"><g><path d="M 4.3125 0.09375 C 3.550781 0.09375 2.816406 -0.015625 2.109375 -0.234375 C 1.410156 -0.460938 0.863281 -0.742188 0.46875 -1.078125 L 1.046875 -2.09375 C 1.441406 -1.78125 1.9375 -1.523438 2.53125 -1.328125 C 3.132812 -1.128906 3.757812 -1.03125 4.40625 -1.03125 C 5.269531 -1.03125 5.910156 -1.164062 6.328125 -1.4375 C 6.742188 -1.707031 6.953125 -2.085938 6.953125 -2.578125 C 6.953125 -2.921875 6.835938 -3.191406 6.609375 -3.390625 C 6.378906 -3.585938 6.085938 -3.738281 5.734375 -3.84375 C 5.390625 -3.945312 4.929688 -4.046875 4.359375 -4.140625 C 3.585938 -4.285156 2.96875 -4.429688 2.5 -4.578125 C 2.03125 -4.734375 1.628906 -4.988281 1.296875 -5.34375 C 0.972656 -5.707031 0.8125 -6.207031 0.8125 -6.84375 C 0.8125 -7.632812 1.140625 -8.28125 1.796875 -8.78125 C 2.460938 -9.289062 3.378906 -9.546875 4.546875 -9.546875 C 5.160156 -9.546875 5.773438 -9.460938 6.390625 -9.296875 C 7.003906 -9.128906 7.507812 -8.914062 7.90625 -8.65625 L 7.34375 -7.625 C 6.5625 -8.164062 5.628906 -8.4375 4.546875 -8.4375 C 3.734375 -8.4375 3.117188 -8.289062 2.703125 -8 C 2.296875 -7.71875 2.09375 -7.34375 2.09375 -6.875 C 2.09375 -6.519531 2.207031 -6.234375 2.4375 -6.015625 C 2.675781 -5.796875 2.96875 -5.632812 3.3125 -5.53125 C 3.65625 -5.425781 4.132812 -5.320312 4.75 -5.21875 C 5.507812 -5.070312 6.113281 -4.925781 6.5625 -4.78125 C 7.019531 -4.644531 7.410156 -4.398438 7.734375 -4.046875 C 8.054688 -3.703125 8.21875 -3.222656 8.21875 -2.609375 C 8.21875 -1.785156 7.875 -1.128906 7.1875 -0.640625 C 6.5 -0.148438 5.539062 0.09375 4.3125 0.09375 Z M 4.3125 0.09375 "/></g></g></g><g clip-path="url(#1d945be7ef)"><g clip-path="url(#a90fa52066)"><path fill="#ffffff" d="M 571.105469 489.222656 L 724.332031 489.222656 L 724.332031 555.476562 L 571.105469 555.476562 Z M 571.105469 489.222656 " fill-opacity="1" fill-rule="nonzero"/></g></g><g fill="#000000" fill-opacity="1"><g transform="translate(581.528173, 515.609707)"><g><path d="M 2.046875 -12.59375 L 3.390625 -12.59375 L 3.390625 -1.15625 L 10.4375 -1.15625 L 10.4375 0 L 2.046875 0 Z M 2.046875 -12.59375 "/></g></g></g><g fill="#000000" fill-opacity="1"><g transform="translate(592.13014, 515.609707)"><g><path d="M 10.03125 -4.34375 L 2.109375 -4.34375 C 2.179688 -3.351562 2.554688 -2.554688 3.234375 -1.953125 C 3.921875 -1.347656 4.785156 -1.046875 5.828125 -1.046875 C 6.421875 -1.046875 6.960938 -1.148438 7.453125 -1.359375 C 7.941406 -1.566406 8.367188 -1.875 8.734375 -2.28125 L 9.453125 -1.453125 C 9.023438 -0.953125 8.5 -0.566406 7.875 -0.296875 C 7.25 -0.0351562 6.554688 0.09375 5.796875 0.09375 C 4.828125 0.09375 3.96875 -0.113281 3.21875 -0.53125 C 2.46875 -0.945312 1.878906 -1.519531 1.453125 -2.25 C 1.035156 -2.976562 0.828125 -3.804688 0.828125 -4.734375 C 0.828125 -5.660156 1.023438 -6.488281 1.421875 -7.21875 C 1.828125 -7.945312 2.378906 -8.515625 3.078125 -8.921875 C 3.785156 -9.335938 4.578125 -9.546875 5.453125 -9.546875 C 6.328125 -9.546875 7.113281 -9.335938 7.8125 -8.921875 C 8.507812 -8.515625 9.054688 -7.945312 9.453125 -7.21875 C 9.847656 -6.5 10.046875 -5.671875 10.046875 -4.734375 Z M 5.453125 -8.4375 C 4.546875 -8.4375 3.78125 -8.144531 3.15625 -7.5625 C 2.539062 -6.988281 2.191406 -6.234375 2.109375 -5.296875 L 8.8125 -5.296875 C 8.726562 -6.234375 8.378906 -6.988281 7.765625 -7.5625 C 7.148438 -8.144531 6.378906 -8.4375 5.453125 -8.4375 Z M 5.453125 -8.4375 "/></g></g></g><g fill="#000000" fill-opacity="1"><g transform="translate(603.002106, 515.609707)"><g><path d="M 4.3125 0.09375 C 3.550781 0.09375 2.816406 -0.015625 2.109375 -0.234375 C 1.410156 -0.460938 0.863281 -0.742188 0.46875 -1.078125 L 1.046875 -2.09375 C 1.441406 -1.78125 1.9375 -1.523438 2.53125 -1.328125 C 3.132812 -1.128906 3.757812 -1.03125 4.40625 -1.03125 C 5.269531 -1.03125 5.910156 -1.164062 6.328125 -1.4375 C 6.742188 -1.707031 6.953125 -2.085938 6.953125 -2.578125 C 6.953125 -2.921875 6.835938 -3.191406 6.609375 -3.390625 C 6.378906 -3.585938 6.085938 -3.738281 5.734375 -3.84375 C 5.390625 -3.945312 4.929688 -4.046875 4.359375 -4.140625 C 3.585938 -4.285156 2.96875 -4.429688 2.5 -4.578125 C 2.03125 -4.734375 1.628906 -4.988281 1.296875 -5.34375 C 0.972656 -5.707031 0.8125 -6.207031 0.8125 -6.84375 C 0.8125 -7.632812 1.140625 -8.28125 1.796875 -8.78125 C 2.460938 -9.289062 3.378906 -9.546875 4.546875 -9.546875 C 5.160156 -9.546875 5.773438 -9.460938 6.390625 -9.296875 C 7.003906 -9.128906 7.507812 -8.914062 7.90625 -8.65625 L 7.34375 -7.625 C 6.5625 -8.164062 5.628906 -8.4375 4.546875 -8.4375 C 3.734375 -8.4375 3.117188 -8.289062 2.703125 -8 C 2.296875 -7.71875 2.09375 -7.34375 2.09375 -6.875 C 2.09375 -6.519531 2.207031 -6.234375 2.4375 -6.015625 C 2.675781 -5.796875 2.96875 -5.632812 3.3125 -5.53125 C 3.65625 -5.425781 4.132812 -5.320312 4.75 -5.21875 C 5.507812 -5.070312 6.113281 -4.925781 6.5625 -4.78125 C 7.019531 -4.644531 7.410156 -4.398438 7.734375 -4.046875 C 8.054688 -3.703125 8.21875 -3.222656 8.21875 -2.609375 C 8.21875 -1.785156 7.875 -1.128906 7.1875 -0.640625 C 6.5 -0.148438 5.539062 0.09375 4.3125 0.09375 Z M 4.3125 0.09375 "/></g></g></g><g fill="#000000" fill-opacity="1"><g transform="translate(611.804077, 515.609707)"><g/></g></g><g fill="#000000" fill-opacity="1"><g transform="translate(616.520062, 515.609707)"><g><path d="M 6.65625 -9.546875 C 7.539062 -9.546875 8.34375 -9.34375 9.0625 -8.9375 C 9.789062 -8.53125 10.359375 -7.960938 10.765625 -7.234375 C 11.171875 -6.503906 11.375 -5.671875 11.375 -4.734375 C 11.375 -3.785156 11.171875 -2.941406 10.765625 -2.203125 C 10.359375 -1.472656 9.796875 -0.90625 9.078125 -0.5 C 8.367188 -0.101562 7.5625 0.09375 6.65625 0.09375 C 5.894531 0.09375 5.203125 -0.0625 4.578125 -0.375 C 3.960938 -0.695312 3.457031 -1.164062 3.0625 -1.78125 L 3.0625 3.484375 L 1.78125 3.484375 L 1.78125 -9.46875 L 3 -9.46875 L 3 -7.59375 C 3.382812 -8.21875 3.890625 -8.695312 4.515625 -9.03125 C 5.148438 -9.375 5.863281 -9.546875 6.65625 -9.546875 Z M 6.5625 -1.046875 C 7.226562 -1.046875 7.832031 -1.195312 8.375 -1.5 C 8.914062 -1.8125 9.335938 -2.25 9.640625 -2.8125 C 9.941406 -3.375 10.09375 -4.015625 10.09375 -4.734375 C 10.09375 -5.453125 9.941406 -6.085938 9.640625 -6.640625 C 9.335938 -7.203125 8.914062 -7.640625 8.375 -7.953125 C 7.832031 -8.265625 7.226562 -8.421875 6.5625 -8.421875 C 5.894531 -8.421875 5.289062 -8.265625 4.75 -7.953125 C 4.21875 -7.640625 3.800781 -7.203125 3.5 -6.640625 C 3.195312 -6.085938 3.046875 -5.453125 3.046875 -4.734375 C 3.046875 -4.015625 3.195312 -3.375 3.5 -2.8125 C 3.800781 -2.25 4.21875 -1.8125 4.75 -1.5 C 5.289062 -1.195312 5.894531 -1.046875 6.5625 -1.046875 Z M 6.5625 -1.046875 "/></g></g></g><g fill="#000000" fill-opacity="1"><g transform="translate(628.724029, 515.609707)"><g><path d="M 10.03125 -4.34375 L 2.109375 -4.34375 C 2.179688 -3.351562 2.554688 -2.554688 3.234375 -1.953125 C 3.921875 -1.347656 4.785156 -1.046875 5.828125 -1.046875 C 6.421875 -1.046875 6.960938 -1.148438 7.453125 -1.359375 C 7.941406 -1.566406 8.367188 -1.875 8.734375 -2.28125 L 9.453125 -1.453125 C 9.023438 -0.953125 8.5 -0.566406 7.875 -0.296875 C 7.25 -0.0351562 6.554688 0.09375 5.796875 0.09375 C 4.828125 0.09375 3.96875 -0.113281 3.21875 -0.53125 C 2.46875 -0.945312 1.878906 -1.519531 1.453125 -2.25 C 1.035156 -2.976562 0.828125 -3.804688 0.828125 -4.734375 C 0.828125 -5.660156 1.023438 -6.488281 1.421875 -7.21875 C 1.828125 -7.945312 2.378906 -8.515625 3.078125 -8.921875 C 3.785156 -9.335938 4.578125 -9.546875 5.453125 -9.546875 C 6.328125 -9.546875 7.113281 -9.335938 7.8125 -8.921875 C 8.507812 -8.515625 9.054688 -7.945312 9.453125 -7.21875 C 9.847656 -6.5 10.046875 -5.671875 10.046875 -4.734375 Z M 5.453125 -8.4375 C 4.546875 -8.4375 3.78125 -8.144531 3.15625 -7.5625 C 2.539062 -6.988281 2.191406 -6.234375 2.109375 -5.296875 L 8.8125 -5.296875 C 8.726562 -6.234375 8.378906 -6.988281 7.765625 -7.5625 C 7.148438 -8.144531 6.378906 -8.4375 5.453125 -8.4375 Z M 5.453125 -8.4375 "/></g></g></g><g fill="#000000" fill-opacity="1"><g transform="translate(639.595996, 515.609707)"><g><path d="M 3 -7.609375 C 3.300781 -8.242188 3.75 -8.722656 4.34375 -9.046875 C 4.9375 -9.378906 5.671875 -9.546875 6.546875 -9.546875 L 6.546875 -8.296875 L 6.25 -8.3125 C 5.25 -8.3125 4.46875 -8.003906 3.90625 -7.390625 C 3.34375 -6.785156 3.0625 -5.929688 3.0625 -4.828125 L 3.0625 0 L 1.78125 0 L 1.78125 -9.46875 L 3 -9.46875 Z M 3 -7.609375 "/></g></g></g><g fill="#000000" fill-opacity="1"><g transform="translate(646.813979, 515.609707)"><g><path d="M 4.3125 0.09375 C 3.550781 0.09375 2.816406 -0.015625 2.109375 -0.234375 C 1.410156 -0.460938 0.863281 -0.742188 0.46875 -1.078125 L 1.046875 -2.09375 C 1.441406 -1.78125 1.9375 -1.523438 2.53125 -1.328125 C 3.132812 -1.128906 3.757812 -1.03125 4.40625 -1.03125 C 5.269531 -1.03125 5.910156 -1.164062 6.328125 -1.4375 C 6.742188 -1.707031 6.953125 -2.085938 6.953125 -2.578125 C 6.953125 -2.921875 6.835938 -3.191406 6.609375 -3.390625 C 6.378906 -3.585938 6.085938 -3.738281 5.734375 -3.84375 C 5.390625 -3.945312 4.929688 -4.046875 4.359375 -4.140625 C 3.585938 -4.285156 2.96875 -4.429688 2.5 -4.578125 C 2.03125 -4.734375 1.628906 -4.988281 1.296875 -5.34375 C 0.972656 -5.707031 0.8125 -6.207031 0.8125 -6.84375 C 0.8125 -7.632812 1.140625 -8.28125 1.796875 -8.78125 C 2.460938 -9.289062 3.378906 -9.546875 4.546875 -9.546875 C 5.160156 -9.546875 5.773438 -9.460938 6.390625 -9.296875 C 7.003906 -9.128906 7.507812 -8.914062 7.90625 -8.65625 L 7.34375 -7.625 C 6.5625 -8.164062 5.628906 -8.4375 4.546875 -8.4375 C 3.734375 -8.4375 3.117188 -8.289062 2.703125 -8 C 2.296875 -7.71875 2.09375 -7.34375 2.09375 -6.875 C 2.09375 -6.519531 2.207031 -6.234375 2.4375 -6.015625 C 2.675781 -5.796875 2.96875 -5.632812 3.3125 -5.53125 C 3.65625 -5.425781 4.132812 -5.320312 4.75 -5.21875 C 5.507812 -5.070312 6.113281 -4.925781 6.5625 -4.78125 C 7.019531 -4.644531 7.410156 -4.398438 7.734375 -4.046875 C 8.054688 -3.703125 8.21875 -3.222656 8.21875 -2.609375 C 8.21875 -1.785156 7.875 -1.128906 7.1875 -0.640625 C 6.5 -0.148438 5.539062 0.09375 4.3125 0.09375 Z M 4.3125 0.09375 "/></g></g></g><g fill="#000000" fill-opacity="1"><g transform="translate(655.61595, 515.609707)"><g><path d="M 5.65625 0.09375 C 4.738281 0.09375 3.914062 -0.113281 3.1875 -0.53125 C 2.457031 -0.945312 1.878906 -1.519531 1.453125 -2.25 C 1.035156 -2.976562 0.828125 -3.804688 0.828125 -4.734375 C 0.828125 -5.660156 1.035156 -6.488281 1.453125 -7.21875 C 1.878906 -7.945312 2.457031 -8.515625 3.1875 -8.921875 C 3.914062 -9.335938 4.738281 -9.546875 5.65625 -9.546875 C 6.5625 -9.546875 7.378906 -9.335938 8.109375 -8.921875 C 8.847656 -8.515625 9.421875 -7.945312 9.828125 -7.21875 C 10.242188 -6.488281 10.453125 -5.660156 10.453125 -4.734375 C 10.453125 -3.804688 10.242188 -2.976562 9.828125 -2.25 C 9.421875 -1.519531 8.847656 -0.945312 8.109375 -0.53125 C 7.378906 -0.113281 6.5625 0.09375 5.65625 0.09375 Z M 5.65625 -1.046875 C 6.320312 -1.046875 6.921875 -1.195312 7.453125 -1.5 C 7.992188 -1.8125 8.410156 -2.25 8.703125 -2.8125 C 9.003906 -3.375 9.15625 -4.015625 9.15625 -4.734375 C 9.15625 -5.453125 9.003906 -6.09375 8.703125 -6.65625 C 8.410156 -7.21875 7.992188 -7.648438 7.453125 -7.953125 C 6.921875 -8.265625 6.320312 -8.421875 5.65625 -8.421875 C 4.976562 -8.421875 4.375 -8.265625 3.84375 -7.953125 C 3.3125 -7.648438 2.890625 -7.21875 2.578125 -6.65625 C 2.273438 -6.09375 2.125 -5.453125 2.125 -4.734375 C 2.125 -4.015625 2.273438 -3.375 2.578125 -2.8125 C 2.890625 -2.25 3.3125 -1.8125 3.84375 -1.5 C 4.375 -1.195312 4.976562 -1.046875 5.65625 -1.046875 Z M 5.65625 -1.046875 "/></g></g></g><g fill="#000000" fill-opacity="1"><g transform="translate(666.901918, 515.609707)"><g><path d="M 6.609375 -9.546875 C 7.796875 -9.546875 8.738281 -9.195312 9.4375 -8.5 C 10.144531 -7.8125 10.5 -6.804688 10.5 -5.484375 L 10.5 0 L 9.21875 0 L 9.21875 -5.359375 C 9.21875 -6.347656 8.96875 -7.097656 8.46875 -7.609375 C 7.976562 -8.128906 7.28125 -8.390625 6.375 -8.390625 C 5.351562 -8.390625 4.546875 -8.082031 3.953125 -7.46875 C 3.359375 -6.863281 3.0625 -6.03125 3.0625 -4.96875 L 3.0625 0 L 1.78125 0 L 1.78125 -9.46875 L 3 -9.46875 L 3 -7.71875 C 3.351562 -8.300781 3.835938 -8.75 4.453125 -9.0625 C 5.066406 -9.382812 5.785156 -9.546875 6.609375 -9.546875 Z M 6.609375 -9.546875 "/></g></g></g><g fill="#000000" fill-opacity="1"><g transform="translate(679.087884, 515.609707)"><g><path d="M 6.609375 -9.546875 C 7.796875 -9.546875 8.738281 -9.195312 9.4375 -8.5 C 10.144531 -7.8125 10.5 -6.804688 10.5 -5.484375 L 10.5 0 L 9.21875 0 L 9.21875 -5.359375 C 9.21875 -6.347656 8.96875 -7.097656 8.46875 -7.609375 C 7.976562 -8.128906 7.28125 -8.390625 6.375 -8.390625 C 5.351562 -8.390625 4.546875 -8.082031 3.953125 -7.46875 C 3.359375 -6.863281 3.0625 -6.03125 3.0625 -4.96875 L 3.0625 0 L 1.78125 0 L 1.78125 -9.46875 L 3 -9.46875 L 3 -7.71875 C 3.351562 -8.300781 3.835938 -8.75 4.453125 -9.0625 C 5.066406 -9.382812 5.785156 -9.546875 6.609375 -9.546875 Z M 6.609375 -9.546875 "/></g></g></g><g fill="#000000" fill-opacity="1"><g transform="translate(691.27385, 515.609707)"><g><path d="M 10.03125 -4.34375 L 2.109375 -4.34375 C 2.179688 -3.351562 2.554688 -2.554688 3.234375 -1.953125 C 3.921875 -1.347656 4.785156 -1.046875 5.828125 -1.046875 C 6.421875 -1.046875 6.960938 -1.148438 7.453125 -1.359375 C 7.941406 -1.566406 8.367188 -1.875 8.734375 -2.28125 L 9.453125 -1.453125 C 9.023438 -0.953125 8.5 -0.566406 7.875 -0.296875 C 7.25 -0.0351562 6.554688 0.09375 5.796875 0.09375 C 4.828125 0.09375 3.96875 -0.113281 3.21875 -0.53125 C 2.46875 -0.945312 1.878906 -1.519531 1.453125 -2.25 C 1.035156 -2.976562 0.828125 -3.804688 0.828125 -4.734375 C 0.828125 -5.660156 1.023438 -6.488281 1.421875 -7.21875 C 1.828125 -7.945312 2.378906 -8.515625 3.078125 -8.921875 C 3.785156 -9.335938 4.578125 -9.546875 5.453125 -9.546875 C 6.328125 -9.546875 7.113281 -9.335938 7.8125 -8.921875 C 8.507812 -8.515625 9.054688 -7.945312 9.453125 -7.21875 C 9.847656 -6.5 10.046875 -5.671875 10.046875 -4.734375 Z M 5.453125 -8.4375 C 4.546875 -8.4375 3.78125 -8.144531 3.15625 -7.5625 C 2.539062 -6.988281 2.191406 -6.234375 2.109375 -5.296875 L 8.8125 -5.296875 C 8.726562 -6.234375 8.378906 -6.988281 7.765625 -7.5625 C 7.148438 -8.144531 6.378906 -8.4375 5.453125 -8.4375 Z M 5.453125 -8.4375 "/></g></g></g><g fill="#000000" fill-opacity="1"><g transform="translate(702.145816, 515.609707)"><g><path d="M 4.3125 0.09375 C 3.550781 0.09375 2.816406 -0.015625 2.109375 -0.234375 C 1.410156 -0.460938 0.863281 -0.742188 0.46875 -1.078125 L 1.046875 -2.09375 C 1.441406 -1.78125 1.9375 -1.523438 2.53125 -1.328125 C 3.132812 -1.128906 3.757812 -1.03125 4.40625 -1.03125 C 5.269531 -1.03125 5.910156 -1.164062 6.328125 -1.4375 C 6.742188 -1.707031 6.953125 -2.085938 6.953125 -2.578125 C 6.953125 -2.921875 6.835938 -3.191406 6.609375 -3.390625 C 6.378906 -3.585938 6.085938 -3.738281 5.734375 -3.84375 C 5.390625 -3.945312 4.929688 -4.046875 4.359375 -4.140625 C 3.585938 -4.285156 2.96875 -4.429688 2.5 -4.578125 C 2.03125 -4.734375 1.628906 -4.988281 1.296875 -5.34375 C 0.972656 -5.707031 0.8125 -6.207031 0.8125 -6.84375 C 0.8125 -7.632812 1.140625 -8.28125 1.796875 -8.78125 C 2.460938 -9.289062 3.378906 -9.546875 4.546875 -9.546875 C 5.160156 -9.546875 5.773438 -9.460938 6.390625 -9.296875 C 7.003906 -9.128906 7.507812 -8.914062 7.90625 -8.65625 L 7.34375 -7.625 C 6.5625 -8.164062 5.628906 -8.4375 4.546875 -8.4375 C 3.734375 -8.4375 3.117188 -8.289062 2.703125 -8 C 2.296875 -7.71875 2.09375 -7.34375 2.09375 -6.875 C 2.09375 -6.519531 2.207031 -6.234375 2.4375 -6.015625 C 2.675781 -5.796875 2.96875 -5.632812 3.3125 -5.53125 C 3.65625 -5.425781 4.132812 -5.320312 4.75 -5.21875 C 5.507812 -5.070312 6.113281 -4.925781 6.5625 -4.78125 C 7.019531 -4.644531 7.410156 -4.398438 7.734375 -4.046875 C 8.054688 -3.703125 8.21875 -3.222656 8.21875 -2.609375 C 8.21875 -1.785156 7.875 -1.128906 7.1875 -0.640625 C 6.5 -0.148438 5.539062 0.09375 4.3125 0.09375 Z M 4.3125 0.09375 "/></g></g></g><g fill="#000000" fill-opacity="1"><g transform="translate(619.485203, 540.359706)"><g><path d="M 5.09375 -9.546875 C 6.332031 -9.546875 7.28125 -9.234375 7.9375 -8.609375 C 8.59375 -7.992188 8.921875 -7.082031 8.921875 -5.875 L 8.921875 0 L 7.703125 0 L 7.703125 -1.46875 C 7.410156 -0.976562 6.984375 -0.59375 6.421875 -0.3125 C 5.867188 -0.0390625 5.210938 0.09375 4.453125 0.09375 C 3.390625 0.09375 2.546875 -0.15625 1.921875 -0.65625 C 1.296875 -1.164062 0.984375 -1.832031 0.984375 -2.65625 C 0.984375 -3.46875 1.273438 -4.117188 1.859375 -4.609375 C 2.441406 -5.097656 3.367188 -5.34375 4.640625 -5.34375 L 7.65625 -5.34375 L 7.65625 -5.921875 C 7.65625 -6.734375 7.425781 -7.351562 6.96875 -7.78125 C 6.507812 -8.207031 5.84375 -8.421875 4.96875 -8.421875 C 4.363281 -8.421875 3.785156 -8.320312 3.234375 -8.125 C 2.679688 -7.925781 2.207031 -7.65625 1.8125 -7.3125 L 1.234375 -8.265625 C 1.722656 -8.671875 2.300781 -8.984375 2.96875 -9.203125 C 3.644531 -9.429688 4.351562 -9.546875 5.09375 -9.546875 Z M 4.640625 -0.921875 C 5.359375 -0.921875 5.972656 -1.082031 6.484375 -1.40625 C 7.003906 -1.738281 7.394531 -2.21875 7.65625 -2.84375 L 7.65625 -4.390625 L 4.6875 -4.390625 C 3.0625 -4.390625 2.25 -3.828125 2.25 -2.703125 C 2.25 -2.148438 2.457031 -1.710938 2.875 -1.390625 C 3.300781 -1.078125 3.890625 -0.921875 4.640625 -0.921875 Z M 6.90625 -10.9375 L 5.125 -12.4375 L 3.34375 -10.9375 L 2.15625 -10.9375 L 4.484375 -13.171875 L 5.78125 -13.171875 L 8.09375 -10.9375 Z M 6.90625 -10.9375 "/></g></g></g><g fill="#000000" fill-opacity="1"><g transform="translate(630.105171, 540.359706)"><g><path d="M 10.546875 -9.46875 L 10.546875 -1.15625 C 10.546875 0.457031 10.148438 1.648438 9.359375 2.421875 C 8.578125 3.191406 7.394531 3.578125 5.8125 3.578125 C 4.9375 3.578125 4.101562 3.445312 3.3125 3.1875 C 2.53125 2.9375 1.894531 2.582031 1.40625 2.125 L 2.046875 1.15625 C 2.503906 1.5625 3.0625 1.878906 3.71875 2.109375 C 4.375 2.335938 5.0625 2.453125 5.78125 2.453125 C 6.976562 2.453125 7.859375 2.171875 8.421875 1.609375 C 8.984375 1.054688 9.265625 0.191406 9.265625 -0.984375 L 9.265625 -2.203125 C 8.867188 -1.597656 8.347656 -1.140625 7.703125 -0.828125 C 7.066406 -0.515625 6.359375 -0.359375 5.578125 -0.359375 C 4.691406 -0.359375 3.882812 -0.550781 3.15625 -0.9375 C 2.425781 -1.332031 1.851562 -1.878906 1.4375 -2.578125 C 1.03125 -3.285156 0.828125 -4.082031 0.828125 -4.96875 C 0.828125 -5.851562 1.03125 -6.644531 1.4375 -7.34375 C 1.851562 -8.039062 2.421875 -8.582031 3.140625 -8.96875 C 3.867188 -9.351562 4.679688 -9.546875 5.578125 -9.546875 C 6.378906 -9.546875 7.101562 -9.378906 7.75 -9.046875 C 8.40625 -8.722656 8.929688 -8.257812 9.328125 -7.65625 L 9.328125 -9.46875 Z M 5.703125 -1.5 C 6.390625 -1.5 7.007812 -1.644531 7.5625 -1.9375 C 8.113281 -2.226562 8.539062 -2.632812 8.84375 -3.15625 C 9.15625 -3.6875 9.3125 -4.289062 9.3125 -4.96875 C 9.3125 -5.632812 9.15625 -6.226562 8.84375 -6.75 C 8.539062 -7.28125 8.113281 -7.691406 7.5625 -7.984375 C 7.019531 -8.273438 6.398438 -8.421875 5.703125 -8.421875 C 5.023438 -8.421875 4.410156 -8.273438 3.859375 -7.984375 C 3.316406 -7.703125 2.890625 -7.296875 2.578125 -6.765625 C 2.273438 -6.234375 2.125 -5.632812 2.125 -4.96875 C 2.125 -4.289062 2.273438 -3.6875 2.578125 -3.15625 C 2.890625 -2.632812 3.316406 -2.226562 3.859375 -1.9375 C 4.410156 -1.644531 5.023438 -1.5 5.703125 -1.5 Z M 5.703125 -1.5 "/></g></g></g><g fill="#000000" fill-opacity="1"><g transform="translate(642.453139, 540.359706)"><g><path d="M 10.03125 -4.34375 L 2.109375 -4.34375 C 2.179688 -3.351562 2.554688 -2.554688 3.234375 -1.953125 C 3.921875 -1.347656 4.785156 -1.046875 5.828125 -1.046875 C 6.421875 -1.046875 6.960938 -1.148438 7.453125 -1.359375 C 7.941406 -1.566406 8.367188 -1.875 8.734375 -2.28125 L 9.453125 -1.453125 C 9.023438 -0.953125 8.5 -0.566406 7.875 -0.296875 C 7.25 -0.0351562 6.554688 0.09375 5.796875 0.09375 C 4.828125 0.09375 3.96875 -0.113281 3.21875 -0.53125 C 2.46875 -0.945312 1.878906 -1.519531 1.453125 -2.25 C 1.035156 -2.976562 0.828125 -3.804688 0.828125 -4.734375 C 0.828125 -5.660156 1.023438 -6.488281 1.421875 -7.21875 C 1.828125 -7.945312 2.378906 -8.515625 3.078125 -8.921875 C 3.785156 -9.335938 4.578125 -9.546875 5.453125 -9.546875 C 6.328125 -9.546875 7.113281 -9.335938 7.8125 -8.921875 C 8.507812 -8.515625 9.054688 -7.945312 9.453125 -7.21875 C 9.847656 -6.5 10.046875 -5.671875 10.046875 -4.734375 Z M 5.453125 -8.4375 C 4.546875 -8.4375 3.78125 -8.144531 3.15625 -7.5625 C 2.539062 -6.988281 2.191406 -6.234375 2.109375 -5.296875 L 8.8125 -5.296875 C 8.726562 -6.234375 8.378906 -6.988281 7.765625 -7.5625 C 7.148438 -8.144531 6.378906 -8.4375 5.453125 -8.4375 Z M 6.75 -13.171875 L 8.46875 -13.171875 L 5.546875 -10.9375 L 4.296875 -10.9375 Z M 6.75 -13.171875 "/></g></g></g><g fill="#000000" fill-opacity="1"><g transform="translate(653.325106, 540.359706)"><g><path d="M 10.03125 -4.34375 L 2.109375 -4.34375 C 2.179688 -3.351562 2.554688 -2.554688 3.234375 -1.953125 C 3.921875 -1.347656 4.785156 -1.046875 5.828125 -1.046875 C 6.421875 -1.046875 6.960938 -1.148438 7.453125 -1.359375 C 7.941406 -1.566406 8.367188 -1.875 8.734375 -2.28125 L 9.453125 -1.453125 C 9.023438 -0.953125 8.5 -0.566406 7.875 -0.296875 C 7.25 -0.0351562 6.554688 0.09375 5.796875 0.09375 C 4.828125 0.09375 3.96875 -0.113281 3.21875 -0.53125 C 2.46875 -0.945312 1.878906 -1.519531 1.453125 -2.25 C 1.035156 -2.976562 0.828125 -3.804688 0.828125 -4.734375 C 0.828125 -5.660156 1.023438 -6.488281 1.421875 -7.21875 C 1.828125 -7.945312 2.378906 -8.515625 3.078125 -8.921875 C 3.785156 -9.335938 4.578125 -9.546875 5.453125 -9.546875 C 6.328125 -9.546875 7.113281 -9.335938 7.8125 -8.921875 C 8.507812 -8.515625 9.054688 -7.945312 9.453125 -7.21875 C 9.847656 -6.5 10.046875 -5.671875 10.046875 -4.734375 Z M 5.453125 -8.4375 C 4.546875 -8.4375 3.78125 -8.144531 3.15625 -7.5625 C 2.539062 -6.988281 2.191406 -6.234375 2.109375 -5.296875 L 8.8125 -5.296875 C 8.726562 -6.234375 8.378906 -6.988281 7.765625 -7.5625 C 7.148438 -8.144531 6.378906 -8.4375 5.453125 -8.4375 Z M 5.453125 -8.4375 "/></g></g></g><g fill="#000000" fill-opacity="1"><g transform="translate(664.197073, 540.359706)"><g><path d="M 4.3125 0.09375 C 3.550781 0.09375 2.816406 -0.015625 2.109375 -0.234375 C 1.410156 -0.460938 0.863281 -0.742188 0.46875 -1.078125 L 1.046875 -2.09375 C 1.441406 -1.78125 1.9375 -1.523438 2.53125 -1.328125 C 3.132812 -1.128906 3.757812 -1.03125 4.40625 -1.03125 C 5.269531 -1.03125 5.910156 -1.164062 6.328125 -1.4375 C 6.742188 -1.707031 6.953125 -2.085938 6.953125 -2.578125 C 6.953125 -2.921875 6.835938 -3.191406 6.609375 -3.390625 C 6.378906 -3.585938 6.085938 -3.738281 5.734375 -3.84375 C 5.390625 -3.945312 4.929688 -4.046875 4.359375 -4.140625 C 3.585938 -4.285156 2.96875 -4.429688 2.5 -4.578125 C 2.03125 -4.734375 1.628906 -4.988281 1.296875 -5.34375 C 0.972656 -5.707031 0.8125 -6.207031 0.8125 -6.84375 C 0.8125 -7.632812 1.140625 -8.28125 1.796875 -8.78125 C 2.460938 -9.289062 3.378906 -9.546875 4.546875 -9.546875 C 5.160156 -9.546875 5.773438 -9.460938 6.390625 -9.296875 C 7.003906 -9.128906 7.507812 -8.914062 7.90625 -8.65625 L 7.34375 -7.625 C 6.5625 -8.164062 5.628906 -8.4375 4.546875 -8.4375 C 3.734375 -8.4375 3.117188 -8.289062 2.703125 -8 C 2.296875 -7.71875 2.09375 -7.34375 2.09375 -6.875 C 2.09375 -6.519531 2.207031 -6.234375 2.4375 -6.015625 C 2.675781 -5.796875 2.96875 -5.632812 3.3125 -5.53125 C 3.65625 -5.425781 4.132812 -5.320312 4.75 -5.21875 C 5.507812 -5.070312 6.113281 -4.925781 6.5625 -4.78125 C 7.019531 -4.644531 7.410156 -4.398438 7.734375 -4.046875 C 8.054688 -3.703125 8.21875 -3.222656 8.21875 -2.609375 C 8.21875 -1.785156 7.875 -1.128906 7.1875 -0.640625 C 6.5 -0.148438 5.539062 0.09375 4.3125 0.09375 Z M 4.3125 0.09375 "/></g></g></g><g clip-path="url(#12715781d1)"><g clip-path="url(#d7d6e87fcf)"><path fill="#ffffff" d="M 287.152344 51.328125 L 440.378906 51.328125 L 440.378906 117.582031 L 287.152344 117.582031 Z M 287.152344 51.328125 " fill-opacity="1" fill-rule="nonzero"/></g></g><g fill="#000000" fill-opacity="1"><g transform="translate(311.094479, 78.830224)"><g><path d="M 2.046875 -12.59375 L 3.390625 -12.59375 L 3.390625 -1.15625 L 10.4375 -1.15625 L 10.4375 0 L 2.046875 0 Z M 2.046875 -12.59375 "/></g></g></g><g fill="#000000" fill-opacity="1"><g transform="translate(321.696446, 78.830224)"><g><path d="M 10.03125 -4.34375 L 2.109375 -4.34375 C 2.179688 -3.351562 2.554688 -2.554688 3.234375 -1.953125 C 3.921875 -1.347656 4.785156 -1.046875 5.828125 -1.046875 C 6.421875 -1.046875 6.960938 -1.148438 7.453125 -1.359375 C 7.941406 -1.566406 8.367188 -1.875 8.734375 -2.28125 L 9.453125 -1.453125 C 9.023438 -0.953125 8.5 -0.566406 7.875 -0.296875 C 7.25 -0.0351562 6.554688 0.09375 5.796875 0.09375 C 4.828125 0.09375 3.96875 -0.113281 3.21875 -0.53125 C 2.46875 -0.945312 1.878906 -1.519531 1.453125 -2.25 C 1.035156 -2.976562 0.828125 -3.804688 0.828125 -4.734375 C 0.828125 -5.660156 1.023438 -6.488281 1.421875 -7.21875 C 1.828125 -7.945312 2.378906 -8.515625 3.078125 -8.921875 C 3.785156 -9.335938 4.578125 -9.546875 5.453125 -9.546875 C 6.328125 -9.546875 7.113281 -9.335938 7.8125 -8.921875 C 8.507812 -8.515625 9.054688 -7.945312 9.453125 -7.21875 C 9.847656 -6.5 10.046875 -5.671875 10.046875 -4.734375 Z M 5.453125 -8.4375 C 4.546875 -8.4375 3.78125 -8.144531 3.15625 -7.5625 C 2.539062 -6.988281 2.191406 -6.234375 2.109375 -5.296875 L 8.8125 -5.296875 C 8.726562 -6.234375 8.378906 -6.988281 7.765625 -7.5625 C 7.148438 -8.144531 6.378906 -8.4375 5.453125 -8.4375 Z M 5.453125 -8.4375 "/></g></g></g><g fill="#000000" fill-opacity="1"><g transform="translate(332.568412, 78.830224)"><g><path d="M 4.3125 0.09375 C 3.550781 0.09375 2.816406 -0.015625 2.109375 -0.234375 C 1.410156 -0.460938 0.863281 -0.742188 0.46875 -1.078125 L 1.046875 -2.09375 C 1.441406 -1.78125 1.9375 -1.523438 2.53125 -1.328125 C 3.132812 -1.128906 3.757812 -1.03125 4.40625 -1.03125 C 5.269531 -1.03125 5.910156 -1.164062 6.328125 -1.4375 C 6.742188 -1.707031 6.953125 -2.085938 6.953125 -2.578125 C 6.953125 -2.921875 6.835938 -3.191406 6.609375 -3.390625 C 6.378906 -3.585938 6.085938 -3.738281 5.734375 -3.84375 C 5.390625 -3.945312 4.929688 -4.046875 4.359375 -4.140625 C 3.585938 -4.285156 2.96875 -4.429688 2.5 -4.578125 C 2.03125 -4.734375 1.628906 -4.988281 1.296875 -5.34375 C 0.972656 -5.707031 0.8125 -6.207031 0.8125 -6.84375 C 0.8125 -7.632812 1.140625 -8.28125 1.796875 -8.78125 C 2.460938 -9.289062 3.378906 -9.546875 4.546875 -9.546875 C 5.160156 -9.546875 5.773438 -9.460938 6.390625 -9.296875 C 7.003906 -9.128906 7.507812 -8.914062 7.90625 -8.65625 L 7.34375 -7.625 C 6.5625 -8.164062 5.628906 -8.4375 4.546875 -8.4375 C 3.734375 -8.4375 3.117188 -8.289062 2.703125 -8 C 2.296875 -7.71875 2.09375 -7.34375 2.09375 -6.875 C 2.09375 -6.519531 2.207031 -6.234375 2.4375 -6.015625 C 2.675781 -5.796875 2.96875 -5.632812 3.3125 -5.53125 C 3.65625 -5.425781 4.132812 -5.320312 4.75 -5.21875 C 5.507812 -5.070312 6.113281 -4.925781 6.5625 -4.78125 C 7.019531 -4.644531 7.410156 -4.398438 7.734375 -4.046875 C 8.054688 -3.703125 8.21875 -3.222656 8.21875 -2.609375 C 8.21875 -1.785156 7.875 -1.128906 7.1875 -0.640625 C 6.5 -0.148438 5.539062 0.09375 4.3125 0.09375 Z M 4.3125 0.09375 "/></g></g></g><g fill="#000000" fill-opacity="1"><g transform="translate(341.370383, 78.830224)"><g/></g></g><g fill="#000000" fill-opacity="1"><g transform="translate(346.086368, 78.830224)"><g><path d="M 13.59375 -9.546875 C 14.78125 -9.546875 15.710938 -9.203125 16.390625 -8.515625 C 17.066406 -7.828125 17.40625 -6.816406 17.40625 -5.484375 L 17.40625 0 L 16.125 0 L 16.125 -5.359375 C 16.125 -6.347656 15.882812 -7.097656 15.40625 -7.609375 C 14.9375 -8.128906 14.269531 -8.390625 13.40625 -8.390625 C 12.425781 -8.390625 11.648438 -8.082031 11.078125 -7.46875 C 10.515625 -6.863281 10.234375 -6.03125 10.234375 -4.96875 L 10.234375 0 L 8.96875 0 L 8.96875 -5.359375 C 8.96875 -6.347656 8.726562 -7.097656 8.25 -7.609375 C 7.78125 -8.128906 7.109375 -8.390625 6.234375 -8.390625 C 5.253906 -8.390625 4.476562 -8.082031 3.90625 -7.46875 C 3.34375 -6.863281 3.0625 -6.03125 3.0625 -4.96875 L 3.0625 0 L 1.78125 0 L 1.78125 -9.46875 L 3 -9.46875 L 3 -7.734375 C 3.34375 -8.316406 3.8125 -8.765625 4.40625 -9.078125 C 5.007812 -9.390625 5.703125 -9.546875 6.484375 -9.546875 C 7.273438 -9.546875 7.957031 -9.375 8.53125 -9.03125 C 9.113281 -8.695312 9.550781 -8.203125 9.84375 -7.546875 C 10.195312 -8.171875 10.695312 -8.660156 11.34375 -9.015625 C 12 -9.367188 12.75 -9.546875 13.59375 -9.546875 Z M 13.59375 -9.546875 "/></g></g></g><g fill="#000000" fill-opacity="1"><g transform="translate(365.184313, 78.830224)"><g><path d="M 5.09375 -9.546875 C 6.332031 -9.546875 7.28125 -9.234375 7.9375 -8.609375 C 8.59375 -7.992188 8.921875 -7.082031 8.921875 -5.875 L 8.921875 0 L 7.703125 0 L 7.703125 -1.46875 C 7.410156 -0.976562 6.984375 -0.59375 6.421875 -0.3125 C 5.867188 -0.0390625 5.210938 0.09375 4.453125 0.09375 C 3.390625 0.09375 2.546875 -0.15625 1.921875 -0.65625 C 1.296875 -1.164062 0.984375 -1.832031 0.984375 -2.65625 C 0.984375 -3.46875 1.273438 -4.117188 1.859375 -4.609375 C 2.441406 -5.097656 3.367188 -5.34375 4.640625 -5.34375 L 7.65625 -5.34375 L 7.65625 -5.921875 C 7.65625 -6.734375 7.425781 -7.351562 6.96875 -7.78125 C 6.507812 -8.207031 5.84375 -8.421875 4.96875 -8.421875 C 4.363281 -8.421875 3.785156 -8.320312 3.234375 -8.125 C 2.679688 -7.925781 2.207031 -7.65625 1.8125 -7.3125 L 1.234375 -8.265625 C 1.722656 -8.671875 2.300781 -8.984375 2.96875 -9.203125 C 3.644531 -9.429688 4.351562 -9.546875 5.09375 -9.546875 Z M 4.640625 -0.921875 C 5.359375 -0.921875 5.972656 -1.082031 6.484375 -1.40625 C 7.003906 -1.738281 7.394531 -2.21875 7.65625 -2.84375 L 7.65625 -4.390625 L 4.6875 -4.390625 C 3.0625 -4.390625 2.25 -3.828125 2.25 -2.703125 C 2.25 -2.148438 2.457031 -1.710938 2.875 -1.390625 C 3.300781 -1.078125 3.890625 -0.921875 4.640625 -0.921875 Z M 4.640625 -0.921875 "/></g></g></g><g fill="#000000" fill-opacity="1"><g transform="translate(375.804281, 78.830224)"><g><path d="M 1.78125 -13.359375 L 3.0625 -13.359375 L 3.0625 0 L 1.78125 0 Z M 1.78125 -13.359375 "/></g></g></g><g fill="#000000" fill-opacity="1"><g transform="translate(380.646264, 78.830224)"><g><path d="M 5.09375 -9.546875 C 6.332031 -9.546875 7.28125 -9.234375 7.9375 -8.609375 C 8.59375 -7.992188 8.921875 -7.082031 8.921875 -5.875 L 8.921875 0 L 7.703125 0 L 7.703125 -1.46875 C 7.410156 -0.976562 6.984375 -0.59375 6.421875 -0.3125 C 5.867188 -0.0390625 5.210938 0.09375 4.453125 0.09375 C 3.390625 0.09375 2.546875 -0.15625 1.921875 -0.65625 C 1.296875 -1.164062 0.984375 -1.832031 0.984375 -2.65625 C 0.984375 -3.46875 1.273438 -4.117188 1.859375 -4.609375 C 2.441406 -5.097656 3.367188 -5.34375 4.640625 -5.34375 L 7.65625 -5.34375 L 7.65625 -5.921875 C 7.65625 -6.734375 7.425781 -7.351562 6.96875 -7.78125 C 6.507812 -8.207031 5.84375 -8.421875 4.96875 -8.421875 C 4.363281 -8.421875 3.785156 -8.320312 3.234375 -8.125 C 2.679688 -7.925781 2.207031 -7.65625 1.8125 -7.3125 L 1.234375 -8.265625 C 1.722656 -8.671875 2.300781 -8.984375 2.96875 -9.203125 C 3.644531 -9.429688 4.351562 -9.546875 5.09375 -9.546875 Z M 4.640625 -0.921875 C 5.359375 -0.921875 5.972656 -1.082031 6.484375 -1.40625 C 7.003906 -1.738281 7.394531 -2.21875 7.65625 -2.84375 L 7.65625 -4.390625 L 4.6875 -4.390625 C 3.0625 -4.390625 2.25 -3.828125 2.25 -2.703125 C 2.25 -2.148438 2.457031 -1.710938 2.875 -1.390625 C 3.300781 -1.078125 3.890625 -0.921875 4.640625 -0.921875 Z M 4.640625 -0.921875 "/></g></g></g><g fill="#000000" fill-opacity="1"><g transform="translate(391.266232, 78.830224)"><g><path d="M 10.421875 -13.359375 L 10.421875 0 L 9.203125 0 L 9.203125 -1.875 C 8.816406 -1.238281 8.304688 -0.75 7.671875 -0.40625 C 7.046875 -0.0703125 6.335938 0.09375 5.546875 0.09375 C 4.660156 0.09375 3.851562 -0.109375 3.125 -0.515625 C 2.40625 -0.929688 1.84375 -1.503906 1.4375 -2.234375 C 1.03125 -2.960938 0.828125 -3.796875 0.828125 -4.734375 C 0.828125 -5.671875 1.03125 -6.503906 1.4375 -7.234375 C 1.84375 -7.960938 2.40625 -8.53125 3.125 -8.9375 C 3.851562 -9.34375 4.660156 -9.546875 5.546875 -9.546875 C 6.316406 -9.546875 7.007812 -9.382812 7.625 -9.0625 C 8.238281 -8.75 8.742188 -8.285156 9.140625 -7.671875 L 9.140625 -13.359375 Z M 5.65625 -1.046875 C 6.3125 -1.046875 6.90625 -1.195312 7.4375 -1.5 C 7.976562 -1.8125 8.398438 -2.25 8.703125 -2.8125 C 9.003906 -3.375 9.15625 -4.015625 9.15625 -4.734375 C 9.15625 -5.453125 9.003906 -6.09375 8.703125 -6.65625 C 8.398438 -7.21875 7.976562 -7.648438 7.4375 -7.953125 C 6.90625 -8.265625 6.3125 -8.421875 5.65625 -8.421875 C 4.976562 -8.421875 4.375 -8.265625 3.84375 -7.953125 C 3.3125 -7.648438 2.890625 -7.21875 2.578125 -6.65625 C 2.273438 -6.09375 2.125 -5.453125 2.125 -4.734375 C 2.125 -4.015625 2.273438 -3.375 2.578125 -2.8125 C 2.890625 -2.25 3.3125 -1.8125 3.84375 -1.5 C 4.375 -1.195312 4.976562 -1.046875 5.65625 -1.046875 Z M 5.65625 -1.046875 "/></g></g></g><g fill="#000000" fill-opacity="1"><g transform="translate(403.470199, 78.830224)"><g><path d="M 10.03125 -4.34375 L 2.109375 -4.34375 C 2.179688 -3.351562 2.554688 -2.554688 3.234375 -1.953125 C 3.921875 -1.347656 4.785156 -1.046875 5.828125 -1.046875 C 6.421875 -1.046875 6.960938 -1.148438 7.453125 -1.359375 C 7.941406 -1.566406 8.367188 -1.875 8.734375 -2.28125 L 9.453125 -1.453125 C 9.023438 -0.953125 8.5 -0.566406 7.875 -0.296875 C 7.25 -0.0351562 6.554688 0.09375 5.796875 0.09375 C 4.828125 0.09375 3.96875 -0.113281 3.21875 -0.53125 C 2.46875 -0.945312 1.878906 -1.519531 1.453125 -2.25 C 1.035156 -2.976562 0.828125 -3.804688 0.828125 -4.734375 C 0.828125 -5.660156 1.023438 -6.488281 1.421875 -7.21875 C 1.828125 -7.945312 2.378906 -8.515625 3.078125 -8.921875 C 3.785156 -9.335938 4.578125 -9.546875 5.453125 -9.546875 C 6.328125 -9.546875 7.113281 -9.335938 7.8125 -8.921875 C 8.507812 -8.515625 9.054688 -7.945312 9.453125 -7.21875 C 9.847656 -6.5 10.046875 -5.671875 10.046875 -4.734375 Z M 5.453125 -8.4375 C 4.546875 -8.4375 3.78125 -8.144531 3.15625 -7.5625 C 2.539062 -6.988281 2.191406 -6.234375 2.109375 -5.296875 L 8.8125 -5.296875 C 8.726562 -6.234375 8.378906 -6.988281 7.765625 -7.5625 C 7.148438 -8.144531 6.378906 -8.4375 5.453125 -8.4375 Z M 5.453125 -8.4375 "/></g></g></g><g fill="#000000" fill-opacity="1"><g transform="translate(414.342166, 78.830224)"><g><path d="M 4.3125 0.09375 C 3.550781 0.09375 2.816406 -0.015625 2.109375 -0.234375 C 1.410156 -0.460938 0.863281 -0.742188 0.46875 -1.078125 L 1.046875 -2.09375 C 1.441406 -1.78125 1.9375 -1.523438 2.53125 -1.328125 C 3.132812 -1.128906 3.757812 -1.03125 4.40625 -1.03125 C 5.269531 -1.03125 5.910156 -1.164062 6.328125 -1.4375 C 6.742188 -1.707031 6.953125 -2.085938 6.953125 -2.578125 C 6.953125 -2.921875 6.835938 -3.191406 6.609375 -3.390625 C 6.378906 -3.585938 6.085938 -3.738281 5.734375 -3.84375 C 5.390625 -3.945312 4.929688 -4.046875 4.359375 -4.140625 C 3.585938 -4.285156 2.96875 -4.429688 2.5 -4.578125 C 2.03125 -4.734375 1.628906 -4.988281 1.296875 -5.34375 C 0.972656 -5.707031 0.8125 -6.207031 0.8125 -6.84375 C 0.8125 -7.632812 1.140625 -8.28125 1.796875 -8.78125 C 2.460938 -9.289062 3.378906 -9.546875 4.546875 -9.546875 C 5.160156 -9.546875 5.773438 -9.460938 6.390625 -9.296875 C 7.003906 -9.128906 7.507812 -8.914062 7.90625 -8.65625 L 7.34375 -7.625 C 6.5625 -8.164062 5.628906 -8.4375 4.546875 -8.4375 C 3.734375 -8.4375 3.117188 -8.289062 2.703125 -8 C 2.296875 -7.71875 2.09375 -7.34375 2.09375 -6.875 C 2.09375 -6.519531 2.207031 -6.234375 2.4375 -6.015625 C 2.675781 -5.796875 2.96875 -5.632812 3.3125 -5.53125 C 3.65625 -5.425781 4.132812 -5.320312 4.75 -5.21875 C 5.507812 -5.070312 6.113281 -4.925781 6.5625 -4.78125 C 7.019531 -4.644531 7.410156 -4.398438 7.734375 -4.046875 C 8.054688 -3.703125 8.21875 -3.222656 8.21875 -2.609375 C 8.21875 -1.785156 7.875 -1.128906 7.1875 -0.640625 C 6.5 -0.148438 5.539062 0.09375 4.3125 0.09375 Z M 4.3125 0.09375 "/></g></g></g><g fill="#000000" fill-opacity="1"><g transform="translate(316.883542, 103.580223)"><g><path d="M 4.3125 0.09375 C 3.550781 0.09375 2.816406 -0.015625 2.109375 -0.234375 C 1.410156 -0.460938 0.863281 -0.742188 0.46875 -1.078125 L 1.046875 -2.09375 C 1.441406 -1.78125 1.9375 -1.523438 2.53125 -1.328125 C 3.132812 -1.128906 3.757812 -1.03125 4.40625 -1.03125 C 5.269531 -1.03125 5.910156 -1.164062 6.328125 -1.4375 C 6.742188 -1.707031 6.953125 -2.085938 6.953125 -2.578125 C 6.953125 -2.921875 6.835938 -3.191406 6.609375 -3.390625 C 6.378906 -3.585938 6.085938 -3.738281 5.734375 -3.84375 C 5.390625 -3.945312 4.929688 -4.046875 4.359375 -4.140625 C 3.585938 -4.285156 2.96875 -4.429688 2.5 -4.578125 C 2.03125 -4.734375 1.628906 -4.988281 1.296875 -5.34375 C 0.972656 -5.707031 0.8125 -6.207031 0.8125 -6.84375 C 0.8125 -7.632812 1.140625 -8.28125 1.796875 -8.78125 C 2.460938 -9.289062 3.378906 -9.546875 4.546875 -9.546875 C 5.160156 -9.546875 5.773438 -9.460938 6.390625 -9.296875 C 7.003906 -9.128906 7.507812 -8.914062 7.90625 -8.65625 L 7.34375 -7.625 C 6.5625 -8.164062 5.628906 -8.4375 4.546875 -8.4375 C 3.734375 -8.4375 3.117188 -8.289062 2.703125 -8 C 2.296875 -7.71875 2.09375 -7.34375 2.09375 -6.875 C 2.09375 -6.519531 2.207031 -6.234375 2.4375 -6.015625 C 2.675781 -5.796875 2.96875 -5.632812 3.3125 -5.53125 C 3.65625 -5.425781 4.132812 -5.320312 4.75 -5.21875 C 5.507812 -5.070312 6.113281 -4.925781 6.5625 -4.78125 C 7.019531 -4.644531 7.410156 -4.398438 7.734375 -4.046875 C 8.054688 -3.703125 8.21875 -3.222656 8.21875 -2.609375 C 8.21875 -1.785156 7.875 -1.128906 7.1875 -0.640625 C 6.5 -0.148438 5.539062 0.09375 4.3125 0.09375 Z M 4.3125 0.09375 "/></g></g></g><g fill="#000000" fill-opacity="1"><g transform="translate(325.685513, 103.580223)"><g><path d="M 5.09375 -9.546875 C 6.332031 -9.546875 7.28125 -9.234375 7.9375 -8.609375 C 8.59375 -7.992188 8.921875 -7.082031 8.921875 -5.875 L 8.921875 0 L 7.703125 0 L 7.703125 -1.46875 C 7.410156 -0.976562 6.984375 -0.59375 6.421875 -0.3125 C 5.867188 -0.0390625 5.210938 0.09375 4.453125 0.09375 C 3.390625 0.09375 2.546875 -0.15625 1.921875 -0.65625 C 1.296875 -1.164062 0.984375 -1.832031 0.984375 -2.65625 C 0.984375 -3.46875 1.273438 -4.117188 1.859375 -4.609375 C 2.441406 -5.097656 3.367188 -5.34375 4.640625 -5.34375 L 7.65625 -5.34375 L 7.65625 -5.921875 C 7.65625 -6.734375 7.425781 -7.351562 6.96875 -7.78125 C 6.507812 -8.207031 5.84375 -8.421875 4.96875 -8.421875 C 4.363281 -8.421875 3.785156 -8.320312 3.234375 -8.125 C 2.679688 -7.925781 2.207031 -7.65625 1.8125 -7.3125 L 1.234375 -8.265625 C 1.722656 -8.671875 2.300781 -8.984375 2.96875 -9.203125 C 3.644531 -9.429688 4.351562 -9.546875 5.09375 -9.546875 Z M 4.640625 -0.921875 C 5.359375 -0.921875 5.972656 -1.082031 6.484375 -1.40625 C 7.003906 -1.738281 7.394531 -2.21875 7.65625 -2.84375 L 7.65625 -4.390625 L 4.6875 -4.390625 C 3.0625 -4.390625 2.25 -3.828125 2.25 -2.703125 C 2.25 -2.148438 2.457031 -1.710938 2.875 -1.390625 C 3.300781 -1.078125 3.890625 -0.921875 4.640625 -0.921875 Z M 4.640625 -0.921875 "/></g></g></g><g fill="#000000" fill-opacity="1"><g transform="translate(336.30548, 103.580223)"><g><path d="M 1.78125 -9.46875 L 3.0625 -9.46875 L 3.0625 0 L 1.78125 0 Z M 2.421875 -11.53125 C 2.160156 -11.53125 1.9375 -11.617188 1.75 -11.796875 C 1.570312 -11.984375 1.484375 -12.203125 1.484375 -12.453125 C 1.484375 -12.691406 1.570312 -12.898438 1.75 -13.078125 C 1.9375 -13.265625 2.160156 -13.359375 2.421875 -13.359375 C 2.691406 -13.359375 2.914062 -13.269531 3.09375 -13.09375 C 3.269531 -12.914062 3.359375 -12.707031 3.359375 -12.46875 C 3.359375 -12.207031 3.269531 -11.984375 3.09375 -11.796875 C 2.914062 -11.617188 2.691406 -11.53125 2.421875 -11.53125 Z M 2.421875 -11.53125 "/></g></g></g><g fill="#000000" fill-opacity="1"><g transform="translate(341.147464, 103.580223)"><g><path d="M 4.3125 0.09375 C 3.550781 0.09375 2.816406 -0.015625 2.109375 -0.234375 C 1.410156 -0.460938 0.863281 -0.742188 0.46875 -1.078125 L 1.046875 -2.09375 C 1.441406 -1.78125 1.9375 -1.523438 2.53125 -1.328125 C 3.132812 -1.128906 3.757812 -1.03125 4.40625 -1.03125 C 5.269531 -1.03125 5.910156 -1.164062 6.328125 -1.4375 C 6.742188 -1.707031 6.953125 -2.085938 6.953125 -2.578125 C 6.953125 -2.921875 6.835938 -3.191406 6.609375 -3.390625 C 6.378906 -3.585938 6.085938 -3.738281 5.734375 -3.84375 C 5.390625 -3.945312 4.929688 -4.046875 4.359375 -4.140625 C 3.585938 -4.285156 2.96875 -4.429688 2.5 -4.578125 C 2.03125 -4.734375 1.628906 -4.988281 1.296875 -5.34375 C 0.972656 -5.707031 0.8125 -6.207031 0.8125 -6.84375 C 0.8125 -7.632812 1.140625 -8.28125 1.796875 -8.78125 C 2.460938 -9.289062 3.378906 -9.546875 4.546875 -9.546875 C 5.160156 -9.546875 5.773438 -9.460938 6.390625 -9.296875 C 7.003906 -9.128906 7.507812 -8.914062 7.90625 -8.65625 L 7.34375 -7.625 C 6.5625 -8.164062 5.628906 -8.4375 4.546875 -8.4375 C 3.734375 -8.4375 3.117188 -8.289062 2.703125 -8 C 2.296875 -7.71875 2.09375 -7.34375 2.09375 -6.875 C 2.09375 -6.519531 2.207031 -6.234375 2.4375 -6.015625 C 2.675781 -5.796875 2.96875 -5.632812 3.3125 -5.53125 C 3.65625 -5.425781 4.132812 -5.320312 4.75 -5.21875 C 5.507812 -5.070312 6.113281 -4.925781 6.5625 -4.78125 C 7.019531 -4.644531 7.410156 -4.398438 7.734375 -4.046875 C 8.054688 -3.703125 8.21875 -3.222656 8.21875 -2.609375 C 8.21875 -1.785156 7.875 -1.128906 7.1875 -0.640625 C 6.5 -0.148438 5.539062 0.09375 4.3125 0.09375 Z M 4.3125 0.09375 "/></g></g></g><g fill="#000000" fill-opacity="1"><g transform="translate(349.949435, 103.580223)"><g><path d="M 5.65625 0.09375 C 4.738281 0.09375 3.914062 -0.113281 3.1875 -0.53125 C 2.457031 -0.945312 1.878906 -1.519531 1.453125 -2.25 C 1.035156 -2.976562 0.828125 -3.804688 0.828125 -4.734375 C 0.828125 -5.660156 1.035156 -6.488281 1.453125 -7.21875 C 1.878906 -7.945312 2.457031 -8.515625 3.1875 -8.921875 C 3.914062 -9.335938 4.738281 -9.546875 5.65625 -9.546875 C 6.5625 -9.546875 7.378906 -9.335938 8.109375 -8.921875 C 8.847656 -8.515625 9.421875 -7.945312 9.828125 -7.21875 C 10.242188 -6.488281 10.453125 -5.660156 10.453125 -4.734375 C 10.453125 -3.804688 10.242188 -2.976562 9.828125 -2.25 C 9.421875 -1.519531 8.847656 -0.945312 8.109375 -0.53125 C 7.378906 -0.113281 6.5625 0.09375 5.65625 0.09375 Z M 5.65625 -1.046875 C 6.320312 -1.046875 6.921875 -1.195312 7.453125 -1.5 C 7.992188 -1.8125 8.410156 -2.25 8.703125 -2.8125 C 9.003906 -3.375 9.15625 -4.015625 9.15625 -4.734375 C 9.15625 -5.453125 9.003906 -6.09375 8.703125 -6.65625 C 8.410156 -7.21875 7.992188 -7.648438 7.453125 -7.953125 C 6.921875 -8.265625 6.320312 -8.421875 5.65625 -8.421875 C 4.976562 -8.421875 4.375 -8.265625 3.84375 -7.953125 C 3.3125 -7.648438 2.890625 -7.21875 2.578125 -6.65625 C 2.273438 -6.09375 2.125 -5.453125 2.125 -4.734375 C 2.125 -4.015625 2.273438 -3.375 2.578125 -2.8125 C 2.890625 -2.25 3.3125 -1.8125 3.84375 -1.5 C 4.375 -1.195312 4.976562 -1.046875 5.65625 -1.046875 Z M 5.65625 -1.046875 "/></g></g></g><g fill="#000000" fill-opacity="1"><g transform="translate(361.235403, 103.580223)"><g><path d="M 6.609375 -9.546875 C 7.796875 -9.546875 8.738281 -9.195312 9.4375 -8.5 C 10.144531 -7.8125 10.5 -6.804688 10.5 -5.484375 L 10.5 0 L 9.21875 0 L 9.21875 -5.359375 C 9.21875 -6.347656 8.96875 -7.097656 8.46875 -7.609375 C 7.976562 -8.128906 7.28125 -8.390625 6.375 -8.390625 C 5.351562 -8.390625 4.546875 -8.082031 3.953125 -7.46875 C 3.359375 -6.863281 3.0625 -6.03125 3.0625 -4.96875 L 3.0625 0 L 1.78125 0 L 1.78125 -9.46875 L 3 -9.46875 L 3 -7.71875 C 3.351562 -8.300781 3.835938 -8.75 4.453125 -9.0625 C 5.066406 -9.382812 5.785156 -9.546875 6.609375 -9.546875 Z M 6.609375 -9.546875 "/></g></g></g><g fill="#000000" fill-opacity="1"><g transform="translate(373.421369, 103.580223)"><g><path d="M 6.609375 -9.546875 C 7.796875 -9.546875 8.738281 -9.195312 9.4375 -8.5 C 10.144531 -7.8125 10.5 -6.804688 10.5 -5.484375 L 10.5 0 L 9.21875 0 L 9.21875 -5.359375 C 9.21875 -6.347656 8.96875 -7.097656 8.46875 -7.609375 C 7.976562 -8.128906 7.28125 -8.390625 6.375 -8.390625 C 5.351562 -8.390625 4.546875 -8.082031 3.953125 -7.46875 C 3.359375 -6.863281 3.0625 -6.03125 3.0625 -4.96875 L 3.0625 0 L 1.78125 0 L 1.78125 -9.46875 L 3 -9.46875 L 3 -7.71875 C 3.351562 -8.300781 3.835938 -8.75 4.453125 -9.0625 C 5.066406 -9.382812 5.785156 -9.546875 6.609375 -9.546875 Z M 6.609375 -9.546875 "/></g></g></g><g fill="#000000" fill-opacity="1"><g transform="translate(385.607335, 103.580223)"><g><path d="M 1.78125 -9.46875 L 3.0625 -9.46875 L 3.0625 0 L 1.78125 0 Z M 2.421875 -11.53125 C 2.160156 -11.53125 1.9375 -11.617188 1.75 -11.796875 C 1.570312 -11.984375 1.484375 -12.203125 1.484375 -12.453125 C 1.484375 -12.691406 1.570312 -12.898438 1.75 -13.078125 C 1.9375 -13.265625 2.160156 -13.359375 2.421875 -13.359375 C 2.691406 -13.359375 2.914062 -13.269531 3.09375 -13.09375 C 3.269531 -12.914062 3.359375 -12.707031 3.359375 -12.46875 C 3.359375 -12.207031 3.269531 -11.984375 3.09375 -11.796875 C 2.914062 -11.617188 2.691406 -11.53125 2.421875 -11.53125 Z M 2.421875 -11.53125 "/></g></g></g><g fill="#000000" fill-opacity="1"><g transform="translate(390.449319, 103.580223)"><g><path d="M 10.03125 -4.34375 L 2.109375 -4.34375 C 2.179688 -3.351562 2.554688 -2.554688 3.234375 -1.953125 C 3.921875 -1.347656 4.785156 -1.046875 5.828125 -1.046875 C 6.421875 -1.046875 6.960938 -1.148438 7.453125 -1.359375 C 7.941406 -1.566406 8.367188 -1.875 8.734375 -2.28125 L 9.453125 -1.453125 C 9.023438 -0.953125 8.5 -0.566406 7.875 -0.296875 C 7.25 -0.0351562 6.554688 0.09375 5.796875 0.09375 C 4.828125 0.09375 3.96875 -0.113281 3.21875 -0.53125 C 2.46875 -0.945312 1.878906 -1.519531 1.453125 -2.25 C 1.035156 -2.976562 0.828125 -3.804688 0.828125 -4.734375 C 0.828125 -5.660156 1.023438 -6.488281 1.421875 -7.21875 C 1.828125 -7.945312 2.378906 -8.515625 3.078125 -8.921875 C 3.785156 -9.335938 4.578125 -9.546875 5.453125 -9.546875 C 6.328125 -9.546875 7.113281 -9.335938 7.8125 -8.921875 C 8.507812 -8.515625 9.054688 -7.945312 9.453125 -7.21875 C 9.847656 -6.5 10.046875 -5.671875 10.046875 -4.734375 Z M 5.453125 -8.4375 C 4.546875 -8.4375 3.78125 -8.144531 3.15625 -7.5625 C 2.539062 -6.988281 2.191406 -6.234375 2.109375 -5.296875 L 8.8125 -5.296875 C 8.726562 -6.234375 8.378906 -6.988281 7.765625 -7.5625 C 7.148438 -8.144531 6.378906 -8.4375 5.453125 -8.4375 Z M 5.453125 -8.4375 "/></g></g></g><g fill="#000000" fill-opacity="1"><g transform="translate(401.321285, 103.580223)"><g><path d="M 3 -7.609375 C 3.300781 -8.242188 3.75 -8.722656 4.34375 -9.046875 C 4.9375 -9.378906 5.671875 -9.546875 6.546875 -9.546875 L 6.546875 -8.296875 L 6.25 -8.3125 C 5.25 -8.3125 4.46875 -8.003906 3.90625 -7.390625 C 3.34375 -6.785156 3.0625 -5.929688 3.0625 -4.828125 L 3.0625 0 L 1.78125 0 L 1.78125 -9.46875 L 3 -9.46875 Z M 3 -7.609375 "/></g></g></g><g fill="#000000" fill-opacity="1"><g transform="translate(408.539268, 103.580223)"><g><path d="M 4.3125 0.09375 C 3.550781 0.09375 2.816406 -0.015625 2.109375 -0.234375 C 1.410156 -0.460938 0.863281 -0.742188 0.46875 -1.078125 L 1.046875 -2.09375 C 1.441406 -1.78125 1.9375 -1.523438 2.53125 -1.328125 C 3.132812 -1.128906 3.757812 -1.03125 4.40625 -1.03125 C 5.269531 -1.03125 5.910156 -1.164062 6.328125 -1.4375 C 6.742188 -1.707031 6.953125 -2.085938 6.953125 -2.578125 C 6.953125 -2.921875 6.835938 -3.191406 6.609375 -3.390625 C 6.378906 -3.585938 6.085938 -3.738281 5.734375 -3.84375 C 5.390625 -3.945312 4.929688 -4.046875 4.359375 -4.140625 C 3.585938 -4.285156 2.96875 -4.429688 2.5 -4.578125 C 2.03125 -4.734375 1.628906 -4.988281 1.296875 -5.34375 C 0.972656 -5.707031 0.8125 -6.207031 0.8125 -6.84375 C 0.8125 -7.632812 1.140625 -8.28125 1.796875 -8.78125 C 2.460938 -9.289062 3.378906 -9.546875 4.546875 -9.546875 C 5.160156 -9.546875 5.773438 -9.460938 6.390625 -9.296875 C 7.003906 -9.128906 7.507812 -8.914062 7.90625 -8.65625 L 7.34375 -7.625 C 6.5625 -8.164062 5.628906 -8.4375 4.546875 -8.4375 C 3.734375 -8.4375 3.117188 -8.289062 2.703125 -8 C 2.296875 -7.71875 2.09375 -7.34375 2.09375 -6.875 C 2.09375 -6.519531 2.207031 -6.234375 2.4375 -6.015625 C 2.675781 -5.796875 2.96875 -5.632812 3.3125 -5.53125 C 3.65625 -5.425781 4.132812 -5.320312 4.75 -5.21875 C 5.507812 -5.070312 6.113281 -4.925781 6.5625 -4.78125 C 7.019531 -4.644531 7.410156 -4.398438 7.734375 -4.046875 C 8.054688 -3.703125 8.21875 -3.222656 8.21875 -2.609375 C 8.21875 -1.785156 7.875 -1.128906 7.1875 -0.640625 C 6.5 -0.148438 5.539062 0.09375 4.3125 0.09375 Z M 4.3125 0.09375 "/></g></g></g></svg>