<svg xmlns="http://www.w3.org/2000/svg" xmlns:xlink="http://www.w3.org/1999/xlink" xmlns:lucid="lucid" width="882" height="986"><g transform="translate(680.5 161.5)" lucid:page-tab-id="0_0"><path d="M-660-83.67a5 5 0 0 1 5-5h297.26a5 5 0 0 1 5 5v286a5 5 0 0 1-5 5H-655a5 5 0 0 1-5-5z" fill="#fff"/><path d="M-660-48.67v-35a5 5 0 0 1 5-5h297.26a5 5 0 0 1 5 5v35" fill="#ccc"/><path d="M-660-83.67a5 5 0 0 1 5-5h297.26a5 5 0 0 1 5 5v286a5 5 0 0 1-5 5H-655a5 5 0 0 1-5-5zM-660-48.67h307.26M-506.37-48.67v256" stroke="#333" fill="none"/><use xlink:href="#a" transform="matrix(1,0,0,1,-650,-88.66666666666663) translate(0 23.6)"/><use xlink:href="#b" transform="matrix(1,0,0,1,-655,-46.16666666666663) translate(0 17.1)"/><use xlink:href="#c" transform="matrix(1,0,0,1,-501.3699715296691,-46.16666666666663) translate(0 17.1)"/><use xlink:href="#d" transform="matrix(1,0,0,1,-655,-14.166666666666629) translate(0 17.1)"/><use xlink:href="#c" transform="matrix(1,0,0,1,-501.3699715296691,-14.166666666666629) translate(0 17.1)"/><use xlink:href="#e" transform="matrix(1,0,0,1,-655,17.83333333333337) translate(0 17.1)"/><use xlink:href="#c" transform="matrix(1,0,0,1,-501.3699715296691,17.83333333333337) translate(0 17.1)"/><use xlink:href="#f" transform="matrix(1,0,0,1,-655,49.83333333333337) translate(0 17.1)"/><use xlink:href="#g" transform="matrix(1,0,0,1,-655,49.83333333333337) translate(93.15 17.1)"/><use xlink:href="#c" transform="matrix(1,0,0,1,-501.3699715296691,49.83333333333337) translate(0 17.1)"/><use xlink:href="#h" transform="matrix(1,0,0,1,-655,81.83333333333337) translate(0 17.1)"/><use xlink:href="#c" transform="matrix(1,0,0,1,-501.3699715296691,81.83333333333337) translate(0 17.1)"/><use xlink:href="#i" transform="matrix(1,0,0,1,-655,113.83333333333337) translate(0 17.1)"/><use xlink:href="#j" transform="matrix(1,0,0,1,-501.3699715296691,113.83333333333337) translate(0 17.1)"/><use xlink:href="#k" transform="matrix(1,0,0,1,-655,145.83333333333337) translate(0 17.1)"/><use xlink:href="#l" transform="matrix(1,0,0,1,-655,145.83333333333337) translate(48.900000000000006 17.1)"/><use xlink:href="#m" transform="matrix(1,0,0,1,-501.3699715296691,145.83333333333337) translate(0 17.1)"/><use xlink:href="#n" transform="matrix(1,0,0,1,-501.3699715296691,145.83333333333337) translate(48.900000000000006 17.1)"/><use xlink:href="#o" transform="matrix(1,0,0,1,-655,177.83333333333337) translate(0 17.1)"/><use xlink:href="#p" transform="matrix(1,0,0,1,-501.3699715296691,177.83333333333337) translate(0 17.1)"/><use xlink:href="#q" transform="matrix(1,0,0,1,-501.3699715296691,177.83333333333337) translate(38.900000000000006 17.1)"/><path d="M-660 256.33a5 5 0 0 1 5-5h297.26a5 5 0 0 1 5 5v222a5 5 0 0 1-5 5H-655a5 5 0 0 1-5-5z" fill="#fff"/><path d="M-660 291.33v-35a5 5 0 0 1 5-5h297.26a5 5 0 0 1 5 5v35" fill="#ccc"/><path d="M-660 256.33a5 5 0 0 1 5-5h297.26a5 5 0 0 1 5 5v222a5 5 0 0 1-5 5H-655a5 5 0 0 1-5-5zM-660 291.33h307.26M-521.72 291.33v192" stroke="#333" fill="none"/><use xlink:href="#o" transform="matrix(1,0,0,1,-650,251.33333333333337) translate(0 23.6)"/><use xlink:href="#r" transform="matrix(1,0,0,1,-655,293.83333333333337) translate(0 17.1)"/><use xlink:href="#r" transform="matrix(1,0,0,1,-516.7201654241385,293.83333333333337) translate(0 17.1)"/><use xlink:href="#s" transform="matrix(1,0,0,1,-655,325.83333333333337) translate(0 17.1)"/><use xlink:href="#t" transform="matrix(1,0,0,1,-516.7201654241385,325.83333333333337) translate(0 17.1)"/><use xlink:href="#u" transform="matrix(1,0,0,1,-655,357.83333333333337) translate(0 17.1)"/><use xlink:href="#p" transform="matrix(1,0,0,1,-516.7201654241385,357.83333333333337) translate(0 17.1)"/><use xlink:href="#q" transform="matrix(1,0,0,1,-516.7201654241385,357.83333333333337) translate(38.900000000000006 17.1)"/><use xlink:href="#v" transform="matrix(1,0,0,1,-655,389.83333333333337) translate(0 17.1)"/><use xlink:href="#w" transform="matrix(1,0,0,1,-516.7201654241385,389.83333333333337) translate(0 17.1)"/><use xlink:href="#x" transform="matrix(1,0,0,1,-655,421.83333333333337) translate(0 17.1)"/><use xlink:href="#c" transform="matrix(1,0,0,1,-516.7201654241385,421.83333333333337) translate(0 17.1)"/><use xlink:href="#y" transform="matrix(1,0,0,1,-655,453.83333333333337) translate(0 17.1)"/><use xlink:href="#z" transform="matrix(1,0,0,1,-516.7201654241385,453.83333333333337) translate(0 17.1)"/><path d="M-100-135a5 5 0 0 1 5-5h270a5 5 0 0 1 5 5v296a5 5 0 0 1-5 5H-95a5 5 0 0 1-5-5z" fill="#fff"/><path d="M-100-100v-35a5 5 0 0 1 5-5h270a5 5 0 0 1 5 5v35" fill="#ccc"/><path d="M-100-135a5 5 0 0 1 5-5h270a5 5 0 0 1 5 5v296a5 5 0 0 1-5 5H-95a5 5 0 0 1-5-5zM-100-100h280M40-100v266" stroke="#1071e5" stroke-width="3" fill="none"/><use xlink:href="#k" transform="matrix(1,0,0,1,-90,-140) translate(0 23.6)"/><use xlink:href="#l" transform="matrix(1,0,0,1,-90,-140) translate(48.900000000000006 23.6)"/><use xlink:href="#A" transform="matrix(1,0,0,1,-95,-97.5) translate(0 17.1)"/><use xlink:href="#B" transform="matrix(1,0,0,1,45,-97.5) translate(0 17.1)"/><use xlink:href="#C" transform="matrix(1,0,0,1,-95,-65.5) translate(0 16.799999999999997)"/><use xlink:href="#D" transform="matrix(1,0,0,1,-95,-65.5) translate(42.95 16.799999999999997)"/><use xlink:href="#E" transform="matrix(1,0,0,1,-95,-65.5) translate(0 38.4)"/><use xlink:href="#r" transform="matrix(1,0,0,1,45,-65.5) translate(0 27.6)"/><use xlink:href="#F" transform="matrix(1,0,0,1,-95,-12.5) translate(0 17.1)"/><use xlink:href="#G" transform="matrix(1,0,0,1,-95,-12.5) translate(64.95 17.1)"/><use xlink:href="#c" transform="matrix(1,0,0,1,45,-12.5) translate(0 17.1)"/><use xlink:href="#H" transform="matrix(1,0,0,1,-95,19.5) translate(0 17.1)"/><use xlink:href="#t" transform="matrix(1,0,0,1,45,19.5) translate(0 17.1)"/><use xlink:href="#I" transform="matrix(1,0,0,1,-95,51.5) translate(0 17.1)"/><use xlink:href="#t" transform="matrix(1,0,0,1,45,51.5) translate(0 17.1)"/><use xlink:href="#J" transform="matrix(1,0,0,1,-95,83.5) translate(0 17.1)"/><use xlink:href="#K" transform="matrix(1,0,0,1,45,83.5) translate(0 17.1)"/><use xlink:href="#L" transform="matrix(1,0,0,1,-95,115.5) translate(0 16.799999999999997)"/><use xlink:href="#M" transform="matrix(1,0,0,1,-95,115.5) translate(89.45 16.799999999999997)"/><use xlink:href="#N" transform="matrix(1,0,0,1,-95,115.5) translate(0 38.4)"/><use xlink:href="#K" transform="matrix(1,0,0,1,45,115.5) translate(0 27.6)"/><path d="M-332.24 159.33h99.37a6 6 0 0 0 6-6V-114a6 6 0 0 1 6-6h100.55" stroke="#5e5e5e" stroke-width="2" fill="none"/><path d="M-332.24 169.33v-20M-352.24 159.33h20" stroke="#5e5e5e" stroke-width="2" fill="#fff"/><path d="M-101.95-110l-20-10 20-10" stroke="#5e5e5e" stroke-width="2" fill="#fff" fill-opacity="0"/><path d="M-101.95-120h-20" stroke="#5e5e5e" stroke-width="2" fill="#fff"/><path d="M-332.24 191.33h14a6 6 0 0 1 6 6v68a6 6 0 0 1-6 6h-15.18" stroke="#5e5e5e" stroke-width="2" fill="none"/><path d="M-332.24 201.33v-20M-352.24 191.33h20" stroke="#5e5e5e" stroke-width="2" fill="#fff"/><path d="M-351.8 261.33l20 10-20 10" stroke="#5e5e5e" stroke-width="2" fill="#fff" fill-opacity="0"/><path d="M-351.8 271.33h20" stroke="#5e5e5e" stroke-width="2" fill="#fff"/><path d="M-220 260.33a5 5 0 0 1 5-5H55a5 5 0 0 1 5 5v190a5 5 0 0 1-5 5h-270a5 5 0 0 1-5-5z" fill="#fff"/><path d="M-220 295.33v-35a5 5 0 0 1 5-5H55a5 5 0 0 1 5 5v35" fill="#ccc"/><path d="M-220 260.33a5 5 0 0 1 5-5H55a5 5 0 0 1 5 5v190a5 5 0 0 1-5 5h-270a5 5 0 0 1-5-5zM-220 295.33H60M-49.57 295.33v160" stroke="#d916a8" stroke-width="3" fill="none"/><use xlink:href="#O" transform="matrix(1,0,0,1,-210,255.33333333315133) translate(0 23.6)"/><use xlink:href="#b" transform="matrix(1,0,0,1,-215,297.83333333315136) translate(0 17.1)"/><use xlink:href="#c" transform="matrix(1,0,0,1,-44.5682184610456,297.83333333315136) translate(0 17.1)"/><use xlink:href="#P" transform="matrix(1,0,0,1,-215,329.83333333315136) translate(0 17.1)"/><use xlink:href="#c" transform="matrix(1,0,0,1,-44.5682184610456,329.83333333315136) translate(0 17.1)"/><use xlink:href="#Q" transform="matrix(1,0,0,1,-215,361.83333333315136) translate(0 17.1)"/><use xlink:href="#R" transform="matrix(1,0,0,1,-215,361.83333333315136) translate(35.9 17.1)"/><use xlink:href="#t" transform="matrix(1,0,0,1,-44.5682184610456,361.83333333315136) translate(0 17.1)"/><use xlink:href="#S" transform="matrix(1,0,0,1,-215,393.83333333315136) translate(0 17.1)"/><use xlink:href="#T" transform="matrix(1,0,0,1,-44.5682184610456,393.83333333315136) translate(0 17.1)"/><use xlink:href="#U" transform="matrix(1,0,0,1,-215,425.83333333315136) translate(0 17.1)"/><use xlink:href="#c" transform="matrix(1,0,0,1,-44.5682184610456,425.83333333315136) translate(0 17.1)"/><path d="M-332.24 371.33h14a6 6 0 0 1 6 6V394a6 6 0 0 0 6 6h.24a6 6 0 0 0 6-6v-84.77a6 6 0 0 1 6-6h26.5a6 6 0 0 1 6 6v28.1a6 6 0 0 0 6 6h15.18" stroke="#5e5e5e" stroke-width="2" fill="none"/><path d="M-332.24 381.33v-20M-352.24 371.33h20" stroke="#5e5e5e" stroke-width="2" fill="#fff"/><path d="M-221.95 353.33l-20-10 20-10" stroke="#5e5e5e" stroke-width="2" fill="#fff" fill-opacity="0"/><path d="M-221.95 343.33h-20" stroke="#5e5e5e" stroke-width="2" fill="#fff"/><path d="M-660 545a5 5 0 0 1 5-5h297.26a5 5 0 0 1 5 5v254a5 5 0 0 1-5 5H-655a5 5 0 0 1-5-5z" fill="#fff"/><path d="M-660 580v-35a5 5 0 0 1 5-5h297.26a5 5 0 0 1 5 5v35" fill="#ccc"/><path d="M-660 545a5 5 0 0 1 5-5h297.26a5 5 0 0 1 5 5v254a5 5 0 0 1-5 5H-655a5 5 0 0 1-5-5zM-660 580h307.26M-464 580v224" stroke="#333" fill="none"/><use xlink:href="#V" transform="matrix(1,0,0,1,-650,540) translate(0 23.6)"/><use xlink:href="#W" transform="matrix(1,0,0,1,-655,582.5) translate(0 17.1)"/><use xlink:href="#X" transform="matrix(1,0,0,1,-655,582.5) translate(60.900000000000006 17.1)"/><use xlink:href="#c" transform="matrix(1,0,0,1,-459,582.5) translate(0 17.1)"/><g><use xlink:href="#Y" transform="matrix(1,0,0,1,-655,614.5) translate(0 17.1)"/><use xlink:href="#Z" transform="matrix(1,0,0,1,-655,614.5) translate(56.85000000000001 17.1)"/></g><g><use xlink:href="#c" transform="matrix(1,0,0,1,-459,614.5) translate(0 17.1)"/></g><g><use xlink:href="#aa" transform="matrix(1,0,0,1,-655,646.5) translate(0 17.1)"/><use xlink:href="#ab" transform="matrix(1,0,0,1,-655,646.5) translate(42.900000000000006 17.1)"/><use xlink:href="#ac" transform="matrix(1,0,0,1,-655,646.5) translate(98.75000000000001 17.1)"/></g><g><use xlink:href="#c" transform="matrix(1,0,0,1,-459,646.5) translate(0 17.1)"/></g><g><use xlink:href="#ad" transform="matrix(1,0,0,1,-655,678.5) translate(0 17.1)"/><use xlink:href="#ae" transform="matrix(1,0,0,1,-655,678.5) translate(47.95 17.1)"/></g><g><use xlink:href="#t" transform="matrix(1,0,0,1,-459,678.5) translate(0 17.1)"/></g><g><use xlink:href="#af" transform="matrix(1,0,0,1,-655,710.5) translate(0 17.1)"/></g><g><use xlink:href="#t" transform="matrix(1,0,0,1,-459,710.5) translate(0 17.1)"/></g><g><use xlink:href="#ag" transform="matrix(1,0,0,1,-655,742.5) translate(0 17.1)"/></g><g><use xlink:href="#c" transform="matrix(1,0,0,1,-459,742.5) translate(0 17.1)"/></g><g><use xlink:href="#ah" transform="matrix(1,0,0,1,-655,774.5) translate(0 17.1)"/></g><g><use xlink:href="#c" transform="matrix(1,0,0,1,-459,774.5) translate(0 17.1)"/></g><defs><path fill="#333" d="M62-99C39-31 123 0 170-40s38-139 58-208h34C234-144 253 4 115 4 49 4 18-43 31-112l26-136h34" id="ai"/><path fill="#333" d="M55-144c13 50 104 24 104 88C159 21 15 23 1-39l26-10c6 40 102 42 102-4-13-50-104-23-104-87 0-71 143-71 148-8l-29 4c-5-35-85-37-89 0" id="aj"/><path fill="#333" d="M111-194c62-3 86 47 72 106H45c-7 38 6 69 45 68 27-1 43-14 53-32l24 11C152-15 129 4 87 4 38 3 12-23 12-71c0-70 32-119 99-123zm44 81c14-66-71-72-95-28-4 8-8 17-11 28h106" id="ak"/><path fill="#333" d="M66-151c12-25 30-51 66-40l-6 26C45-176 58-65 38 0H6l36-190h30" id="al"/><g id="a"><use transform="matrix(0.05,0,0,0.05,0,0)" xlink:href="#ai"/><use transform="matrix(0.05,0,0,0.05,12.950000000000001,0)" xlink:href="#aj"/><use transform="matrix(0.05,0,0,0.05,21.950000000000003,0)" xlink:href="#ak"/><use transform="matrix(0.05,0,0,0.05,31.950000000000003,0)" xlink:href="#al"/><use transform="matrix(0.05,0,0,0.05,37.900000000000006,0)" xlink:href="#aj"/></g><path fill="#333" d="M173 0L80-213 41 0H11l48-248h37l94 214 40-214h30L212 0h-39" id="am"/><path fill="#333" d="M30-147c31-64 166-65 159 27C183-49 158 1 86 4 9 8 1-88 30-147zM88-20c53 0 68-48 68-100 0-31-11-51-44-50-52 1-68 46-68 97 0 32 13 53 44 53" id="an"/><path fill="#333" d="M248-111c6-24 9-61-24-58-72 9-57 108-77 169h-31l26-142c3-37-50-30-64-10C52-115 50-51 37 0H6l36-190h30c-1 10-6 24-4 32 13-43 101-52 105 5 13-22 29-41 61-41 90 0 28 129 23 194h-31" id="ao"/><g id="b"><use transform="matrix(0.05,0,0,0.05,0,0)" xlink:href="#am"/><use transform="matrix(0.05,0,0,0.05,12.950000000000001,0)" xlink:href="#an"/><use transform="matrix(0.05,0,0,0.05,22.950000000000003,0)" xlink:href="#ao"/></g><path fill="#333" d="M194-120c59 52 2 134-86 124-53-6-90-18-98-63l31-7c8 30 29 43 70 43 46 0 84-17 71-62-32-43-135-20-137-98-3-89 178-90 191-16l-30 9c-8-48-127-53-127 5 0 53 81 35 115 65" id="ap"/><path fill="#333" d="M51-54c-9 22 5 41 31 30L79-1C43 14 10-4 19-52l22-115H19l5-23h22l19-43h21l-9 43h35l-4 23H73" id="aq"/><path fill="#333" d="M50-231l6-30h32l-6 30H50zM6 0l37-190h31L37 0H6" id="ar"/><path fill="#333" d="M67-158c22-48 132-52 116 29L158 0h-32l25-140c3-38-53-32-70-12C52-117 51-52 38 0H6l36-190h30" id="as"/><path fill="#333" d="M103-194c29 0 47 14 56 36 2-11 5-23 8-32h30L160-5C157 61 82 97 21 62 9 55 4 45 1 30l28-7c7 42 83 31 92-3 4-16 9-38 13-55-13 20-29 36-62 36-40 0-60-25-60-64 0-71 23-131 91-131zm4 24c-53 0-58 54-61 104-2 27 10 44 36 44 49 0 65-50 67-102 1-29-15-46-42-46" id="at"/><g id="c"><use transform="matrix(0.05,0,0,0.05,0,0)" xlink:href="#ap"/><use transform="matrix(0.05,0,0,0.05,12,0)" xlink:href="#aq"/><use transform="matrix(0.05,0,0,0.05,17,0)" xlink:href="#al"/><use transform="matrix(0.05,0,0,0.05,22.95,0)" xlink:href="#ar"/><use transform="matrix(0.05,0,0,0.05,26.899999999999995,0)" xlink:href="#as"/><use transform="matrix(0.05,0,0,0.05,36.9,0)" xlink:href="#at"/></g><path fill="#333" d="M238-179c0 84-86 86-175 82L45 0H11l48-248c82 0 179-12 179 69zm-34 1c0-53-64-42-116-43l-19 98c63 0 135 9 135-55" id="au"/><path fill="#333" d="M111-194c62-3 86 47 72 106H45c-7 38 6 69 45 68 27-1 43-14 53-32l24 11C152-15 129 4 87 4 38 3 12-23 12-71c0-70 32-119 99-123zm44 81c14-66-71-72-95-28-4 8-8 17-11 28h106zm-61-98c10-23 31-35 45-54h38l-1 5-66 49H94" id="av"/><g id="d"><use transform="matrix(0.05,0,0,0.05,0,0)" xlink:href="#au"/><use transform="matrix(0.05,0,0,0.05,12,0)" xlink:href="#al"/><use transform="matrix(0.05,0,0,0.05,17.95,0)" xlink:href="#av"/><use transform="matrix(0.05,0,0,0.05,27.950000000000003,0)" xlink:href="#as"/><use transform="matrix(0.05,0,0,0.05,37.95,0)" xlink:href="#an"/><use transform="matrix(0.05,0,0,0.05,47.95,0)" xlink:href="#ao"/></g><path fill="#333" d="M11 0l48-248h184l-5 28H87l-15 79h140l-5 27H67L50-27h158l-5 27H11" id="aw"/><path fill="#333" d="M165-48c-4 18 1 34 23 27l-3 20c-29 8-62 0-52-35h-2C116-14 99 4 63 4 30 4 8-16 8-49c0-68 71-67 138-67 10-26 0-56-31-54-26 1-42 9-47 31l-32-5c8-67 160-71 144 15-5 28-9 54-15 81zM42-50c3 52 80 24 89-6 7-12 7-24 11-38-47 1-103-4-100 44" id="ax"/><path fill="#333" d="M6 0l50-261h32L37 0H6" id="ay"/><g id="e"><use transform="matrix(0.05,0,0,0.05,0,0)" xlink:href="#aw"/><use transform="matrix(0.05,0,0,0.05,12,0)" xlink:href="#ao"/><use transform="matrix(0.05,0,0,0.05,26.950000000000003,0)" xlink:href="#ax"/><use transform="matrix(0.05,0,0,0.05,36.95,0)" xlink:href="#ar"/><use transform="matrix(0.05,0,0,0.05,40.900000000000006,0)" xlink:href="#ay"/></g><path fill="#333" d="M119 0H84L31-248h34l41 218 126-218h36" id="az"/><path fill="#333" d="M76-167L44 0H12l33-167H18l4-23h27c3-47 25-81 82-69l-4 24c-35-8-44 15-46 45h37l-5 23H76" id="aA"/><path fill="#333" d="M44-68c0 29 11 47 38 47 30 0 42-19 51-41l28 9C148-21 126 4 82 4 31 4 10-29 12-85c3-77 74-140 146-93 12 8 15 23 18 40l-31 5c-1-22-13-36-36-36-52 0-65 49-65 101" id="aB"/><g id="f"><use transform="matrix(0.05,0,0,0.05,0,0)" xlink:href="#az"/><use transform="matrix(0.05,0,0,0.05,11.35,0)" xlink:href="#ak"/><use transform="matrix(0.05,0,0,0.05,21.35,0)" xlink:href="#al"/><use transform="matrix(0.05,0,0,0.05,27.3,0)" xlink:href="#ar"/><use transform="matrix(0.05,0,0,0.05,31.25,0)" xlink:href="#aA"/><use transform="matrix(0.05,0,0,0.05,36.25,0)" xlink:href="#ar"/><use transform="matrix(0.05,0,0,0.05,40.2,0)" xlink:href="#aB"/><use transform="matrix(0.05,0,0,0.05,49.2,0)" xlink:href="#ax"/><use transform="matrix(0.05,0,0,0.05,59.2,0)" xlink:href="#aq"/><use transform="matrix(0.05,0,0,0.05,64.2,0)" xlink:href="#ar"/><use transform="matrix(0.05,0,0,0.05,68.15,0)" xlink:href="#an"/><use transform="matrix(0.05,0,0,0.05,78.15,0)" xlink:href="#as"/></g><path fill="#333" d="M125-24c46 0 70-25 89-51l25 16C214-24 183 4 123 4 8 4-5-146 60-208c32-50 158-61 191-5 5 7 9 14 11 22l-32 10c-9-28-33-43-69-43-74 0-108 51-108 125 0 46 24 75 72 75" id="aC"/><path fill="#333" d="M133-28C103 26-5 8 13-77c13-62 24-115 90-117 29-1 46 15 56 35l19-102h32L160 0h-30zM45-64c-2 27 10 43 35 43 54-1 69-50 69-103 0-29-15-46-42-46-53-1-58 58-62 106" id="aD"/><g id="g"><use transform="matrix(0.05,0,0,0.05,0,0)" xlink:href="#aC"/><use transform="matrix(0.05,0,0,0.05,12.950000000000001,0)" xlink:href="#an"/><use transform="matrix(0.05,0,0,0.05,22.950000000000003,0)" xlink:href="#aD"/><use transform="matrix(0.05,0,0,0.05,32.95,0)" xlink:href="#ak"/></g><path fill="#333" d="M151-220L108 0H75l42-220H32l6-28h203l-5 28h-85" id="aE"/><path fill="#333" d="M127 0L80-88 50-66 37 0H6l51-261h31L57-100l99-90h39l-93 82L161 0h-34" id="aF"/><g id="h"><use transform="matrix(0.05,0,0,0.05,0,0)" xlink:href="#aE"/><use transform="matrix(0.05,0,0,0.05,9.3,0)" xlink:href="#an"/><use transform="matrix(0.05,0,0,0.05,19.3,0)" xlink:href="#aF"/><use transform="matrix(0.05,0,0,0.05,28.3,0)" xlink:href="#ak"/><use transform="matrix(0.05,0,0,0.05,38.3,0)" xlink:href="#as"/></g><path fill="#333" d="M67-158c15-20 31-36 64-36 94 0 33 127 27 194h-32l25-140c3-38-53-32-70-12C52-117 51-51 37 0H6l51-261h31" id="aG"/><path fill="#333" d="M67-162c32-53 139-36 121 50C175-51 163 2 97 4 68 4 52-11 42-31 38 6 28 39 22 75H-9l50-265h29c-1 10 0 20-3 28zm89 36c0-26-10-43-35-43-54 0-67 50-69 103-1 29 14 45 42 46 53 0 62-58 62-106" id="aH"/><g id="i"><use transform="matrix(0.05,0,0,0.05,0,0)" xlink:href="#aC"/><use transform="matrix(0.05,0,0,0.05,12.950000000000001,0)" xlink:href="#aG"/><use transform="matrix(0.05,0,0,0.05,22.950000000000003,0)" xlink:href="#ax"/><use transform="matrix(0.05,0,0,0.05,32.95,0)" xlink:href="#ao"/><use transform="matrix(0.05,0,0,0.05,47.900000000000006,0)" xlink:href="#aH"/></g><path fill="#333" d="M198-190L69 30C53 58 25 83-20 72c4-11-1-27 19-22 33-1 43-29 59-52L20-190h32L79-34l84-156h35" id="aI"/><g id="j"><use transform="matrix(0.05,0,0,0.05,0,0)" xlink:href="#aE"/><use transform="matrix(0.05,0,0,0.05,9.600000000000001,0)" xlink:href="#aI"/><use transform="matrix(0.05,0,0,0.05,18.6,0)" xlink:href="#aH"/><use transform="matrix(0.05,0,0,0.05,28.6,0)" xlink:href="#ak"/></g><path fill="#333" d="M87-220l-18 92h140l-5 28H64L45 0H11l48-248h178l-5 28H87" id="aJ"/><g id="k"><use transform="matrix(0.05,0,0,0.05,0,0)" xlink:href="#aJ"/><use transform="matrix(0.05,0,0,0.05,10.950000000000001,0)" xlink:href="#ar"/><use transform="matrix(0.05,0,0,0.05,14.9,0)" xlink:href="#aB"/><use transform="matrix(0.05,0,0,0.05,23.900000000000002,0)" xlink:href="#aG"/><use transform="matrix(0.05,0,0,0.05,33.900000000000006,0)" xlink:href="#ak"/></g><g id="l"><use transform="matrix(0.05,0,0,0.05,0,0)" xlink:href="#aj"/><use transform="matrix(0.05,0,0,0.05,9,0)" xlink:href="#ax"/><use transform="matrix(0.05,0,0,0.05,19,0)" xlink:href="#as"/><use transform="matrix(0.05,0,0,0.05,29,0)" xlink:href="#aq"/><use transform="matrix(0.05,0,0,0.05,34,0)" xlink:href="#av"/></g><path fill="#1071e5" d="M178-136c88 48 22 151-73 140C49-3 12-15 4-64l51-9c1 50 111 53 115 3-16-63-132-20-133-112 0-93 190-91 199-10l-50 12c-4-41-93-50-97-4 7 38 59 32 89 48" id="aK"/><path fill="#1071e5" d="M124-194c51 0 84 22 84 74C207-44 167 4 94 4 43 4 11-23 11-74c0-74 41-120 113-120zM99-30c46 0 58-42 58-86 0-27-11-44-37-44-44 0-55 40-57 84-1 27 10 45 36 46" id="aL"/><path fill="#1071e5" d="M69 3c-96 0-34-126-28-193h49L65-57c6 42 62 18 71-6 14-38 17-86 28-127h50L178 0h-47c0-11 4-26 3-33-14 20-30 37-65 36" id="aM"/><path fill="#1071e5" d="M144-137c-1-29-70-35-71-2 16 41 103 10 103 80C176 9 79 16 32-9 18-17 9-31 4-48l44-6c3 32 80 36 82 1-15-42-103-11-103-82 0-77 157-79 161-8" id="aN"/><g id="m"><use transform="matrix(0.05,0,0,0.05,0,0)" xlink:href="#aK"/><use transform="matrix(0.05,0,0,0.05,12,0)" xlink:href="#aL"/><use transform="matrix(0.05,0,0,0.05,22.950000000000003,0)" xlink:href="#aM"/><use transform="matrix(0.05,0,0,0.05,33.900000000000006,0)" xlink:href="#aN"/></g><path fill="#1071e5" d="M132-28C118-9 101 4 69 4 30 4 10-23 10-62c0-70 24-129 92-132 31-1 47 14 56 35l19-102h49L179 0h-49zM62-69c0 22 7 39 29 39 45-2 54-45 57-90 2-27-10-40-33-40-44 0-53 48-53 91" id="aO"/><path fill="#1071e5" d="M67-101c-8 29-7 73 27 71 23-2 32-16 39-37l48 9C170-19 141 4 91 4 36 4 7-28 12-86c6-75 61-124 140-103 26 7 40 29 43 59l-50 4c-1-20-9-34-29-34-35 0-41 29-49 59" id="aP"/><path fill="#1071e5" d="M255-194c90 0 29 129 24 194h-49l25-136c-7-39-53-14-60 9-12 38-18 85-28 127h-49l25-136c2-29-39-23-50-7C69-108 68-47 56 0H6l36-190h48c-1 10-6 24-4 32 12-20 27-36 57-36s46 15 50 41c14-21 29-41 62-41" id="aQ"/><path fill="#1071e5" d="M114-194c63-2 87 48 72 110H63c-3 28 1 55 31 54 21-1 32-13 37-29l44 13C160-14 137 4 91 4 41 4 11-22 11-73c0-71 33-119 103-121zm30 77c14-47-50-61-67-22-3 6-6 13-8 22h75" id="aR"/><path fill="#1071e5" d="M151-194c95 0 34 128 28 194h-49l25-134c0-29-45-25-59-9C67-111 69-48 56 0H6l36-190h47l-4 32c15-20 33-36 66-36" id="aS"/><path fill="#1071e5" d="M72-63c-8 23 5 39 32 30L98-1C54 14 12-6 23-64l18-93H15l7-33h28l24-45h31l-8 45h35l-6 33H90" id="aT"/><g id="n"><use transform="matrix(0.05,0,0,0.05,0,0)" xlink:href="#aO"/><use transform="matrix(0.05,0,0,0.05,10.950000000000001,0)" xlink:href="#aL"/><use transform="matrix(0.05,0,0,0.05,21.900000000000002,0)" xlink:href="#aP"/><use transform="matrix(0.05,0,0,0.05,31.900000000000002,0)" xlink:href="#aM"/><use transform="matrix(0.05,0,0,0.05,42.85,0)" xlink:href="#aQ"/><use transform="matrix(0.05,0,0,0.05,58.85,0)" xlink:href="#aR"/><use transform="matrix(0.05,0,0,0.05,68.85,0)" xlink:href="#aS"/><use transform="matrix(0.05,0,0,0.05,79.8,0)" xlink:href="#aT"/></g><g id="o"><use transform="matrix(0.05,0,0,0.05,0,0)" xlink:href="#aC"/><use transform="matrix(0.05,0,0,0.05,12.950000000000001,0)" xlink:href="#an"/><use transform="matrix(0.05,0,0,0.05,22.950000000000003,0)" xlink:href="#ao"/><use transform="matrix(0.05,0,0,0.05,37.900000000000006,0)" xlink:href="#ao"/><use transform="matrix(0.05,0,0,0.05,52.85,0)" xlink:href="#ax"/><use transform="matrix(0.05,0,0,0.05,62.85,0)" xlink:href="#as"/><use transform="matrix(0.05,0,0,0.05,72.85000000000001,0)" xlink:href="#aD"/><use transform="matrix(0.05,0,0,0.05,82.85000000000001,0)" xlink:href="#ak"/><use transform="matrix(0.05,0,0,0.05,92.85000000000001,0)" xlink:href="#aj"/></g><path fill="#d916a8" d="M161-211c-63 0-91 46-91 110 0 39 17 65 58 64 38-1 60-20 74-45l40 20C220-23 184 0 125 4 9 13-10-144 57-208c33-50 166-62 196-1 4 8 9 18 11 27l-48 12c-6-24-25-41-55-41" id="aU"/><path fill="#d916a8" d="M6 0l51-261h49L55 0H6" id="aV"/><path fill="#d916a8" d="M114-194c63-2 87 48 72 110H63c-3 28 1 55 31 54 21-1 32-13 37-29l44 13C160-14 137 4 91 4 41 4 11-22 11-73c0-71 33-119 103-121zm30 77c14-47-50-61-67-22-3 6-6 13-8 22h75" id="aW"/><path fill="#d916a8" d="M93-157L62 0H13l31-157H16l6-33h28c2-54 40-81 100-68l-6 32c-29-8-44 9-45 36h38l-7 33H93" id="aX"/><g id="p"><use transform="matrix(0.05,0,0,0.05,0,0)" xlink:href="#aU"/><use transform="matrix(0.05,0,0,0.05,12.950000000000001,0)" xlink:href="#aV"/><use transform="matrix(0.05,0,0,0.05,17.950000000000003,0)" xlink:href="#aW"/><use transform="matrix(0.05,0,0,0.05,27.950000000000003,0)" xlink:href="#aX"/></g><path fill="#d916a8" d="M114-194c63-2 87 48 72 110H63c-3 28 1 55 31 54 21-1 32-13 37-29l44 13C160-14 137 4 91 4 41 4 11-22 11-73c0-71 33-119 103-121zm30 77c14-47-50-61-67-22-3 6-6 13-8 22h75zm-52-91c10-23 30-36 44-56h49l-1 8-67 48H92" id="aY"/><path fill="#d916a8" d="M72-63c-8 23 5 39 32 30L98-1C54 14 12-6 23-64l18-93H15l7-33h28l24-45h31l-8 45h35l-6 33H90" id="aZ"/><path fill="#d916a8" d="M84-151c13-25 34-51 72-40l-8 41C67-170 71-64 56 0H6l36-190h47" id="ba"/><path fill="#d916a8" d="M166-52c-4 17 5 29 24 23l-3 27c-30 11-74 1-67-34C105-15 91 4 56 4 23 4 3-15 2-49c0-64 63-67 128-67 10-22 3-53-29-45-13 3-22 10-25 24l-46-5c5-64 156-77 153 0-1 33-11 60-17 90zM97-88c-44-9-64 57-19 57 31 0 42-28 47-57H97" id="bb"/><path fill="#d916a8" d="M151-194c95 0 34 128 28 194h-49l25-134c0-29-45-25-59-9C67-111 69-48 56 0H6l36-190h47l-4 32c15-20 33-36 66-36" id="bc"/><path fill="#d916a8" d="M45-171c29-32 103-29 114 14 2-11 5-23 8-33h47L176-2c-3 70-92 96-155 64C9 56 1 42-1 25l50-5c2 28 48 27 63 11 13-13 20-45 21-66-13 20-30 35-62 36-87 3-60-134-26-172zM94-35c41-3 55-43 55-86 0-24-12-39-35-39-43 0-51 48-51 90 0 22 9 37 31 35" id="bd"/><path fill="#d916a8" d="M114-194c63-2 87 48 72 110H63c-3 28 1 55 31 54 21-1 32-13 37-29l44 13C160-14 137 4 91 4 41 4 11-22 11-73c0-71 33-119 103-121zm30 77c14-47-50-61-67-22-3 6-6 13-8 22h75zm-18-91l-54-48 1-8h46l34 51c-1 10-18 3-27 5" id="be"/><g id="q"><use transform="matrix(0.05,0,0,0.05,0,0)" xlink:href="#aY"/><use transform="matrix(0.05,0,0,0.05,10,0)" xlink:href="#aZ"/><use transform="matrix(0.05,0,0,0.05,15.949999999999998,0)" xlink:href="#ba"/><use transform="matrix(0.05,0,0,0.05,22.95,0)" xlink:href="#bb"/><use transform="matrix(0.05,0,0,0.05,32.95,0)" xlink:href="#bc"/><use transform="matrix(0.05,0,0,0.05,43.900000000000006,0)" xlink:href="#bd"/><use transform="matrix(0.05,0,0,0.05,54.85,0)" xlink:href="#be"/><use transform="matrix(0.05,0,0,0.05,64.85000000000001,0)" xlink:href="#ba"/><use transform="matrix(0.05,0,0,0.05,71.85000000000001,0)" xlink:href="#aW"/></g><path fill="#333" d="M248-139C247-14 144 9 11 0l48-248c105-6 190 8 189 109zm-34 0c1-70-52-87-126-82L50-27c98 7 163-21 164-112" id="bf"/><g id="r"><use transform="matrix(0.05,0,0,0.05,0,0)" xlink:href="#bf"/><use transform="matrix(0.05,0,0,0.05,12.950000000000001,0)" xlink:href="#ax"/><use transform="matrix(0.05,0,0,0.05,22.950000000000003,0)" xlink:href="#aq"/><use transform="matrix(0.05,0,0,0.05,27.950000000000003,0)" xlink:href="#ak"/></g><g id="s"><use transform="matrix(0.05,0,0,0.05,0,0)" xlink:href="#aE"/><use transform="matrix(0.05,0,0,0.05,9.3,0)" xlink:href="#an"/><use transform="matrix(0.05,0,0,0.05,19.3,0)" xlink:href="#aq"/><use transform="matrix(0.05,0,0,0.05,24.3,0)" xlink:href="#ax"/><use transform="matrix(0.05,0,0,0.05,34.3,0)" xlink:href="#ay"/></g><path fill="#333" d="M67 3c-93-2-31-127-26-193h32L48-50c-3 39 53 32 70 12 30-34 30-101 43-152h32L157 0h-30c1-10 6-24 4-33-14 20-29 37-64 36" id="bg"/><path fill="#333" d="M68-162c25-46 127-43 121 31C183-60 169 1 98 4 69 5 53-11 43-31L36 0H5l52-261h31zm88 36c2-27-9-43-34-43-55 0-70 51-70 103 0 29 15 45 43 46 52 0 58-58 61-106" id="bh"/><g id="t"><use transform="matrix(0.05,0,0,0.05,0,0)" xlink:href="#am"/><use transform="matrix(0.05,0,0,0.05,12.950000000000001,0)" xlink:href="#bg"/><use transform="matrix(0.05,0,0,0.05,22.950000000000003,0)" xlink:href="#ao"/><use transform="matrix(0.05,0,0,0.05,37.900000000000006,0)" xlink:href="#bh"/><use transform="matrix(0.05,0,0,0.05,47.900000000000006,0)" xlink:href="#ak"/><use transform="matrix(0.05,0,0,0.05,57.900000000000006,0)" xlink:href="#al"/></g><g id="u"><use transform="matrix(0.05,0,0,0.05,0,0)" xlink:href="#au"/><use transform="matrix(0.05,0,0,0.05,12,0)" xlink:href="#al"/><use transform="matrix(0.05,0,0,0.05,17.95,0)" xlink:href="#an"/><use transform="matrix(0.05,0,0,0.05,27.950000000000003,0)" xlink:href="#aD"/><use transform="matrix(0.05,0,0,0.05,37.95,0)" xlink:href="#bg"/><use transform="matrix(0.05,0,0,0.05,47.95,0)" xlink:href="#ar"/><use transform="matrix(0.05,0,0,0.05,51.900000000000006,0)" xlink:href="#aq"/><use transform="matrix(0.05,0,0,0.05,56.900000000000006,0)" xlink:href="#aj"/></g><path fill="#333" d="M24-61C-1-165 59-251 163-251c67 1 105 36 105 101 0 88-46 140-124 152 2 33 24 47 60 39l-3 23c-50 15-89-11-89-61-46-3-79-26-88-64zm210-73c6-55-18-91-72-90-77 1-111 51-111 125 0 49 24 75 73 75 72 0 103-45 110-110" id="bi"/><g id="v"><use transform="matrix(0.05,0,0,0.05,0,0)" xlink:href="#bi"/><use transform="matrix(0.05,0,0,0.05,14,0)" xlink:href="#bg"/><use transform="matrix(0.05,0,0,0.05,24,0)" xlink:href="#ax"/><use transform="matrix(0.05,0,0,0.05,34,0)" xlink:href="#as"/><use transform="matrix(0.05,0,0,0.05,44,0)" xlink:href="#aq"/><use transform="matrix(0.05,0,0,0.05,49,0)" xlink:href="#ar"/><use transform="matrix(0.05,0,0,0.05,52.95,0)" xlink:href="#aq"/><use transform="matrix(0.05,0,0,0.05,57.95,0)" xlink:href="#av"/></g><path d="M187 0l-14-72H61L19 0h-37l149-248h38L221 0h-34zm-19-99l-22-123L76-99h92" id="bj"/><path d="M66-151c12-25 30-51 66-40l-6 26C45-176 58-65 38 0H6l36-190h30" id="bk"/><path d="M165-48c-4 18 1 34 23 27l-3 20c-29 8-62 0-52-35h-2C116-14 99 4 63 4 30 4 8-16 8-49c0-68 71-67 138-67 10-26 0-56-31-54-26 1-42 9-47 31l-32-5c8-67 160-71 144 15-5 28-9 54-15 81zM42-50c3 52 80 24 89-6 7-12 7-24 11-38-47 1-103-4-100 44" id="bl"/><path d="M198-190L69 30C53 58 25 83-20 72c4-11-1-27 19-22 33-1 43-29 59-52L20-190h32L79-34l84-156h35" id="bm"/><g id="w"><use transform="matrix(0.05,0,0,0.05,0,0)" xlink:href="#bj"/><use transform="matrix(0.05,0,0,0.05,12,0)" xlink:href="#bk"/><use transform="matrix(0.05,0,0,0.05,17.95,0)" xlink:href="#bk"/><use transform="matrix(0.05,0,0,0.05,23.9,0)" xlink:href="#bl"/><use transform="matrix(0.05,0,0,0.05,33.9,0)" xlink:href="#bm"/></g><g id="x"><use transform="matrix(0.05,0,0,0.05,0,0)" xlink:href="#ap"/><use transform="matrix(0.05,0,0,0.05,12,0)" xlink:href="#aq"/><use transform="matrix(0.05,0,0,0.05,17,0)" xlink:href="#ax"/><use transform="matrix(0.05,0,0,0.05,27,0)" xlink:href="#aq"/><use transform="matrix(0.05,0,0,0.05,32,0)" xlink:href="#bg"/><use transform="matrix(0.05,0,0,0.05,42,0)" xlink:href="#aj"/></g><path d="M212-179c-10-28-35-45-73-45-59 0-87 40-87 99 0 60 29 101 89 101 43 0 62-24 78-52l27 14C228-24 195 4 139 4 59 4 22-46 18-125c-6-104 99-153 187-111 19 9 31 26 39 46" id="bn"/><path d="M106-169C34-169 62-67 57 0H25v-261h32l-1 103c12-21 28-36 61-36 89 0 53 116 60 194h-32v-121c2-32-8-49-39-48" id="bo"/><path d="M141-36C126-15 110 5 73 4 37 3 15-17 15-53c-1-64 63-63 125-63 3-35-9-54-41-54-24 1-41 7-42 31l-33-3c5-37 33-52 76-52 45 0 72 20 72 64v82c-1 20 7 32 28 27v20c-31 9-61-2-59-35zM48-53c0 20 12 33 32 33 41-3 63-29 60-74-43 2-92-5-92 41" id="bp"/><path d="M210-169c-67 3-38 105-44 169h-31v-121c0-29-5-50-35-48C34-165 62-65 56 0H25l-1-190h30c1 10-1 24 2 32 10-44 99-50 107 0 11-21 27-35 58-36 85-2 47 119 55 194h-31v-121c0-29-5-49-35-48" id="bq"/><path d="M115-194c55 1 70 41 70 98S169 2 115 4C84 4 66-9 55-30l1 105H24l-1-265h31l2 30c10-21 28-34 59-34zm-8 174c40 0 45-34 45-75s-6-73-45-74c-42 0-51 32-51 76 0 43 10 73 51 73" id="br"/><g id="y"><use transform="matrix(0.05,0,0,0.05,0,0)" xlink:href="#bn"/><use transform="matrix(0.05,0,0,0.05,12.950000000000001,0)" xlink:href="#bo"/><use transform="matrix(0.05,0,0,0.05,22.950000000000003,0)" xlink:href="#bp"/><use transform="matrix(0.05,0,0,0.05,32.95,0)" xlink:href="#bq"/><use transform="matrix(0.05,0,0,0.05,47.900000000000006,0)" xlink:href="#br"/></g><path d="M127-220V0H93v-220H8v-28h204v28h-85" id="bs"/><path d="M179-190L93 31C79 59 56 82 12 73V49c39 6 53-20 64-50L1-190h34L92-34l54-156h33" id="bt"/><path d="M100-194c63 0 86 42 84 106H49c0 40 14 67 53 68 26 1 43-12 49-29l28 8c-11 28-37 45-77 45C44 4 14-33 15-96c1-61 26-98 85-98zm52 81c6-60-76-77-97-28-3 7-6 17-6 28h103" id="bu"/><g id="z"><use transform="matrix(0.05,0,0,0.05,0,0)" xlink:href="#bs"/><use transform="matrix(0.05,0,0,0.05,9.950000000000001,0)" xlink:href="#bt"/><use transform="matrix(0.05,0,0,0.05,18.950000000000003,0)" xlink:href="#br"/><use transform="matrix(0.05,0,0,0.05,28.950000000000003,0)" xlink:href="#bu"/></g><path fill="#333" d="M-28 44V31h207v13H-28" id="bv"/><g id="A"><use transform="matrix(0.05,0,0,0.05,0,0)" xlink:href="#aG"/><use transform="matrix(0.05,0,0,0.05,10,0)" xlink:href="#ax"/><use transform="matrix(0.05,0,0,0.05,20,0)" xlink:href="#aj"/><use transform="matrix(0.05,0,0,0.05,29,0)" xlink:href="#bv"/><use transform="matrix(0.05,0,0,0.05,39,0)" xlink:href="#aJ"/><use transform="matrix(0.05,0,0,0.05,49.95,0)" xlink:href="#ar"/><use transform="matrix(0.05,0,0,0.05,53.900000000000006,0)" xlink:href="#aB"/><use transform="matrix(0.05,0,0,0.05,62.900000000000006,0)" xlink:href="#aG"/><use transform="matrix(0.05,0,0,0.05,72.9,0)" xlink:href="#ak"/><use transform="matrix(0.05,0,0,0.05,82.9,0)" xlink:href="#ap"/><use transform="matrix(0.05,0,0,0.05,94.9,0)" xlink:href="#ax"/><use transform="matrix(0.05,0,0,0.05,104.9,0)" xlink:href="#as"/><use transform="matrix(0.05,0,0,0.05,114.9,0)" xlink:href="#aq"/><use transform="matrix(0.05,0,0,0.05,119.9,0)" xlink:href="#av"/></g><g id="B"><use transform="matrix(0.05,0,0,0.05,0,0)" xlink:href="#bh"/><use transform="matrix(0.05,0,0,0.05,10,0)" xlink:href="#an"/><use transform="matrix(0.05,0,0,0.05,20,0)" xlink:href="#an"/><use transform="matrix(0.05,0,0,0.05,30,0)" xlink:href="#ay"/><use transform="matrix(0.05,0,0,0.05,33.95,0)" xlink:href="#av"/><use transform="matrix(0.05,0,0,0.05,43.95,0)" xlink:href="#ak"/><use transform="matrix(0.05,0,0,0.05,53.95,0)" xlink:href="#as"/></g><g id="C"><use transform="matrix(0.05,0,0,0.05,0,0)" xlink:href="#bf"/><use transform="matrix(0.05,0,0,0.05,12.950000000000001,0)" xlink:href="#ax"/><use transform="matrix(0.05,0,0,0.05,22.950000000000003,0)" xlink:href="#aq"/><use transform="matrix(0.05,0,0,0.05,27.950000000000003,0)" xlink:href="#ak"/></g><g id="D"><use transform="matrix(0.05,0,0,0.05,0,0)" xlink:href="#aD"/><use transform="matrix(0.05,0,0,0.05,10,0)" xlink:href="#ak"/></g><g id="E"><use transform="matrix(0.05,0,0,0.05,0,0)" xlink:href="#as"/><use transform="matrix(0.05,0,0,0.05,10,0)" xlink:href="#ax"/><use transform="matrix(0.05,0,0,0.05,20,0)" xlink:href="#ar"/><use transform="matrix(0.05,0,0,0.05,23.95,0)" xlink:href="#aj"/><use transform="matrix(0.05,0,0,0.05,32.95,0)" xlink:href="#aj"/><use transform="matrix(0.05,0,0,0.05,41.95,0)" xlink:href="#ax"/><use transform="matrix(0.05,0,0,0.05,51.95,0)" xlink:href="#as"/><use transform="matrix(0.05,0,0,0.05,61.95,0)" xlink:href="#aB"/><use transform="matrix(0.05,0,0,0.05,70.95,0)" xlink:href="#ak"/></g><path fill="#333" d="M52-101C46-14 166-7 216-51l9-45h-74l6-28h105l-18 87C217-12 181 4 130 4 60 4 18-31 18-101c0-106 78-167 188-146 30 6 48 27 59 54l-34 9c-10-26-31-41-67-40-75 1-107 50-112 123" id="bw"/><g id="F"><use transform="matrix(0.05,0,0,0.05,0,0)" xlink:href="#bw"/><use transform="matrix(0.05,0,0,0.05,14,0)" xlink:href="#al"/><use transform="matrix(0.05,0,0,0.05,19.95,0)" xlink:href="#an"/><use transform="matrix(0.05,0,0,0.05,29.950000000000003,0)" xlink:href="#bg"/><use transform="matrix(0.05,0,0,0.05,39.95,0)" xlink:href="#aH"/><use transform="matrix(0.05,0,0,0.05,49.95,0)" xlink:href="#ak"/></g><g id="G"><use transform="matrix(0.05,0,0,0.05,0,0)" xlink:href="#aj"/><use transform="matrix(0.05,0,0,0.05,9,0)" xlink:href="#ax"/><use transform="matrix(0.05,0,0,0.05,19,0)" xlink:href="#as"/><use transform="matrix(0.05,0,0,0.05,29,0)" xlink:href="#at"/><use transform="matrix(0.05,0,0,0.05,39,0)" xlink:href="#bg"/><use transform="matrix(0.05,0,0,0.05,49,0)" xlink:href="#ar"/><use transform="matrix(0.05,0,0,0.05,52.95,0)" xlink:href="#as"/></g><g id="H"><use transform="matrix(0.05,0,0,0.05,0,0)" xlink:href="#aE"/><use transform="matrix(0.05,0,0,0.05,9.3,0)" xlink:href="#ax"/><use transform="matrix(0.05,0,0,0.05,19.3,0)" xlink:href="#ar"/><use transform="matrix(0.05,0,0,0.05,23.25,0)" xlink:href="#ay"/><use transform="matrix(0.05,0,0,0.05,27.200000000000003,0)" xlink:href="#ay"/><use transform="matrix(0.05,0,0,0.05,31.149999999999995,0)" xlink:href="#ak"/></g><g id="I"><use transform="matrix(0.05,0,0,0.05,0,0)" xlink:href="#au"/><use transform="matrix(0.05,0,0,0.05,12,0)" xlink:href="#an"/><use transform="matrix(0.05,0,0,0.05,22,0)" xlink:href="#ar"/><use transform="matrix(0.05,0,0,0.05,25.950000000000003,0)" xlink:href="#aD"/><use transform="matrix(0.05,0,0,0.05,35.95,0)" xlink:href="#aj"/></g><path fill="#333" d="M187 0l-14-72H61L19 0h-37l149-248h38L221 0h-34zm-19-99l-22-123L76-99h92" id="bx"/><g id="J"><use transform="matrix(0.05,0,0,0.05,0,0)" xlink:href="#bx"/><use transform="matrix(0.05,0,0,0.05,12,0)" xlink:href="#ay"/><use transform="matrix(0.05,0,0,0.05,15.949999999999998,0)" xlink:href="#ay"/><use transform="matrix(0.05,0,0,0.05,19.9,0)" xlink:href="#ak"/><use transform="matrix(0.05,0,0,0.05,29.899999999999995,0)" xlink:href="#al"/><use transform="matrix(0.05,0,0,0.05,35.85,0)" xlink:href="#at"/><use transform="matrix(0.05,0,0,0.05,45.85,0)" xlink:href="#ar"/><use transform="matrix(0.05,0,0,0.05,49.800000000000004,0)" xlink:href="#ak"/><use transform="matrix(0.05,0,0,0.05,59.800000000000004,0)" xlink:href="#aj"/></g><g id="K"><use transform="matrix(0.05,0,0,0.05,0,0)" xlink:href="#bx"/><use transform="matrix(0.05,0,0,0.05,12,0)" xlink:href="#al"/><use transform="matrix(0.05,0,0,0.05,17.95,0)" xlink:href="#al"/><use transform="matrix(0.05,0,0,0.05,23.9,0)" xlink:href="#ax"/><use transform="matrix(0.05,0,0,0.05,33.9,0)" xlink:href="#aI"/></g><g id="L"><use transform="matrix(0.05,0,0,0.05,0,0)" xlink:href="#aE"/><use transform="matrix(0.05,0,0,0.05,9.600000000000001,0)" xlink:href="#al"/><use transform="matrix(0.05,0,0,0.05,15.55,0)" xlink:href="#ax"/><use transform="matrix(0.05,0,0,0.05,25.55,0)" xlink:href="#ar"/><use transform="matrix(0.05,0,0,0.05,29.5,0)" xlink:href="#aq"/><use transform="matrix(0.05,0,0,0.05,34.5,0)" xlink:href="#ak"/><use transform="matrix(0.05,0,0,0.05,44.5,0)" xlink:href="#ao"/><use transform="matrix(0.05,0,0,0.05,59.45,0)" xlink:href="#ak"/><use transform="matrix(0.05,0,0,0.05,69.45,0)" xlink:href="#as"/><use transform="matrix(0.05,0,0,0.05,79.45,0)" xlink:href="#aq"/></g><g id="M"><use transform="matrix(0.05,0,0,0.05,0,0)" xlink:href="#ak"/><use transform="matrix(0.05,0,0,0.05,10,0)" xlink:href="#as"/></g><g id="N"><use transform="matrix(0.05,0,0,0.05,0,0)" xlink:href="#aB"/><use transform="matrix(0.05,0,0,0.05,9,0)" xlink:href="#an"/><use transform="matrix(0.05,0,0,0.05,19,0)" xlink:href="#bg"/><use transform="matrix(0.05,0,0,0.05,29,0)" xlink:href="#al"/><use transform="matrix(0.05,0,0,0.05,34.95,0)" xlink:href="#aj"/></g><path fill="#333" d="M222 0l43-216c-8 16-17 34-26 49L143 0h-22L81-216 41 0H11l48-248h42l38 208 116-208h45L252 0h-30" id="by"/><g id="O"><use transform="matrix(0.05,0,0,0.05,0,0)" xlink:href="#by"/><use transform="matrix(0.05,0,0,0.05,14.950000000000001,0)" xlink:href="#ak"/><use transform="matrix(0.05,0,0,0.05,24.950000000000003,0)" xlink:href="#aD"/><use transform="matrix(0.05,0,0,0.05,34.95,0)" xlink:href="#ar"/><use transform="matrix(0.05,0,0,0.05,38.900000000000006,0)" xlink:href="#aB"/><use transform="matrix(0.05,0,0,0.05,47.900000000000006,0)" xlink:href="#ax"/><use transform="matrix(0.05,0,0,0.05,57.900000000000006,0)" xlink:href="#ao"/><use transform="matrix(0.05,0,0,0.05,72.85000000000001,0)" xlink:href="#ak"/><use transform="matrix(0.05,0,0,0.05,82.85000000000001,0)" xlink:href="#as"/><use transform="matrix(0.05,0,0,0.05,92.85000000000001,0)" xlink:href="#aq"/><use transform="matrix(0.05,0,0,0.05,97.85000000000001,0)" xlink:href="#aj"/></g><g id="P"><use transform="matrix(0.05,0,0,0.05,0,0)" xlink:href="#bf"/><use transform="matrix(0.05,0,0,0.05,12.950000000000001,0)" xlink:href="#ak"/><use transform="matrix(0.05,0,0,0.05,22.950000000000003,0)" xlink:href="#aj"/><use transform="matrix(0.05,0,0,0.05,31.950000000000003,0)" xlink:href="#aB"/><use transform="matrix(0.05,0,0,0.05,40.95,0)" xlink:href="#al"/><use transform="matrix(0.05,0,0,0.05,46.900000000000006,0)" xlink:href="#ar"/><use transform="matrix(0.05,0,0,0.05,50.85000000000001,0)" xlink:href="#aH"/><use transform="matrix(0.05,0,0,0.05,60.85,0)" xlink:href="#aq"/><use transform="matrix(0.05,0,0,0.05,65.85000000000001,0)" xlink:href="#ar"/><use transform="matrix(0.05,0,0,0.05,69.80000000000001,0)" xlink:href="#an"/><use transform="matrix(0.05,0,0,0.05,79.80000000000001,0)" xlink:href="#as"/></g><path fill="#333" d="M124 0L87-78 21 0h-35l86-98-46-92h33l34 74 61-74h37l-83 92 50 98h-34" id="bz"/><g id="Q"><use transform="matrix(0.05,0,0,0.05,0,0)" xlink:href="#au"/><use transform="matrix(0.05,0,0,0.05,12,0)" xlink:href="#al"/><use transform="matrix(0.05,0,0,0.05,17.95,0)" xlink:href="#ar"/><use transform="matrix(0.05,0,0,0.05,21.9,0)" xlink:href="#bz"/></g><g id="R"><use transform="matrix(0.05,0,0,0.05,0,0)" xlink:href="#bg"/><use transform="matrix(0.05,0,0,0.05,10,0)" xlink:href="#as"/><use transform="matrix(0.05,0,0,0.05,20,0)" xlink:href="#ar"/><use transform="matrix(0.05,0,0,0.05,23.95,0)" xlink:href="#aq"/><use transform="matrix(0.05,0,0,0.05,28.950000000000003,0)" xlink:href="#ax"/><use transform="matrix(0.05,0,0,0.05,38.95,0)" xlink:href="#ar"/><use transform="matrix(0.05,0,0,0.05,42.900000000000006,0)" xlink:href="#al"/><use transform="matrix(0.05,0,0,0.05,48.85000000000001,0)" xlink:href="#ak"/></g><g id="S"><use transform="matrix(0.05,0,0,0.05,0,0)" xlink:href="#as"/><use transform="matrix(0.05,0,0,0.05,10,0)" xlink:href="#ak"/><use transform="matrix(0.05,0,0,0.05,20,0)" xlink:href="#ak"/><use transform="matrix(0.05,0,0,0.05,30,0)" xlink:href="#aD"/><use transform="matrix(0.05,0,0,0.05,40,0)" xlink:href="#aj"/><use transform="matrix(0.05,0,0,0.05,49,0)" xlink:href="#bv"/><use transform="matrix(0.05,0,0,0.05,59,0)" xlink:href="#aH"/><use transform="matrix(0.05,0,0,0.05,69,0)" xlink:href="#al"/><use transform="matrix(0.05,0,0,0.05,74.95,0)" xlink:href="#ak"/><use transform="matrix(0.05,0,0,0.05,84.95,0)" xlink:href="#aj"/><use transform="matrix(0.05,0,0,0.05,93.95,0)" xlink:href="#aB"/><use transform="matrix(0.05,0,0,0.05,102.95,0)" xlink:href="#al"/><use transform="matrix(0.05,0,0,0.05,108.9,0)" xlink:href="#ar"/><use transform="matrix(0.05,0,0,0.05,112.85000000000001,0)" xlink:href="#aH"/><use transform="matrix(0.05,0,0,0.05,122.85000000000001,0)" xlink:href="#aq"/><use transform="matrix(0.05,0,0,0.05,127.85000000000001,0)" xlink:href="#ar"/><use transform="matrix(0.05,0,0,0.05,131.8,0)" xlink:href="#an"/><use transform="matrix(0.05,0,0,0.05,141.8,0)" xlink:href="#as"/></g><path fill="#333" d="M219-77C219 17 104-2 11 0l48-248c73 2 169-15 169 57 0 38-24 54-60 60 29 5 51 21 51 54zm-26-111c0-44-62-31-105-33l-16 79c55 0 121 9 121-46zm-7 110c-1-49-69-36-119-38L50-27c61-1 137 12 136-51" id="bA"/><g id="T"><use transform="matrix(0.05,0,0,0.05,0,0)" xlink:href="#bA"/><use transform="matrix(0.05,0,0,0.05,12,0)" xlink:href="#an"/><use transform="matrix(0.05,0,0,0.05,22,0)" xlink:href="#an"/><use transform="matrix(0.05,0,0,0.05,32,0)" xlink:href="#ay"/><use transform="matrix(0.05,0,0,0.05,35.95,0)" xlink:href="#ak"/><use transform="matrix(0.05,0,0,0.05,45.95,0)" xlink:href="#ax"/><use transform="matrix(0.05,0,0,0.05,55.95,0)" xlink:href="#as"/></g><g id="U"><use transform="matrix(0.05,0,0,0.05,0,0)" xlink:href="#aB"/><use transform="matrix(0.05,0,0,0.05,9,0)" xlink:href="#ax"/><use transform="matrix(0.05,0,0,0.05,19,0)" xlink:href="#aq"/><use transform="matrix(0.05,0,0,0.05,24,0)" xlink:href="#av"/><use transform="matrix(0.05,0,0,0.05,34,0)" xlink:href="#at"/><use transform="matrix(0.05,0,0,0.05,44,0)" xlink:href="#an"/><use transform="matrix(0.05,0,0,0.05,54,0)" xlink:href="#al"/><use transform="matrix(0.05,0,0,0.05,59.95,0)" xlink:href="#ar"/><use transform="matrix(0.05,0,0,0.05,63.900000000000006,0)" xlink:href="#ak"/><use transform="matrix(0.05,0,0,0.05,73.9,0)" xlink:href="#aj"/></g><g id="V"><use transform="matrix(0.05,0,0,0.05,0,0)" xlink:href="#au"/><use transform="matrix(0.05,0,0,0.05,12,0)" xlink:href="#aG"/><use transform="matrix(0.05,0,0,0.05,22,0)" xlink:href="#ax"/><use transform="matrix(0.05,0,0,0.05,32,0)" xlink:href="#al"/><use transform="matrix(0.05,0,0,0.05,37.95,0)" xlink:href="#ao"/><use transform="matrix(0.05,0,0,0.05,52.900000000000006,0)" xlink:href="#ax"/><use transform="matrix(0.05,0,0,0.05,62.900000000000006,0)" xlink:href="#aB"/><use transform="matrix(0.05,0,0,0.05,71.9,0)" xlink:href="#ar"/><use transform="matrix(0.05,0,0,0.05,75.85000000000001,0)" xlink:href="#ak"/><use transform="matrix(0.05,0,0,0.05,85.85000000000001,0)" xlink:href="#aj"/></g><path fill="#333" d="M249-183c0 48-29 72-75 77L221 0h-36l-43-103H65L45 0H11l48-248c83 2 190-17 190 65zm-34 3c0-55-74-39-127-41l-18 92c63-1 145 13 145-51" id="bB"/><g id="W"><use transform="matrix(0.05,0,0,0.05,0,0)" xlink:href="#bB"/><use transform="matrix(0.05,0,0,0.05,12.950000000000001,0)" xlink:href="#ax"/><use transform="matrix(0.05,0,0,0.05,22.950000000000003,0)" xlink:href="#ar"/><use transform="matrix(0.05,0,0,0.05,26.900000000000002,0)" xlink:href="#aj"/><use transform="matrix(0.05,0,0,0.05,35.900000000000006,0)" xlink:href="#an"/><use transform="matrix(0.05,0,0,0.05,45.900000000000006,0)" xlink:href="#as"/></g><g id="X"><use transform="matrix(0.05,0,0,0.05,0,0)" xlink:href="#aj"/><use transform="matrix(0.05,0,0,0.05,9,0)" xlink:href="#an"/><use transform="matrix(0.05,0,0,0.05,19,0)" xlink:href="#aB"/><use transform="matrix(0.05,0,0,0.05,28,0)" xlink:href="#ar"/><use transform="matrix(0.05,0,0,0.05,31.950000000000003,0)" xlink:href="#ax"/><use transform="matrix(0.05,0,0,0.05,41.95,0)" xlink:href="#ay"/><use transform="matrix(0.05,0,0,0.05,45.900000000000006,0)" xlink:href="#ak"/></g><path fill="#333" d="M11 0l48-248h34L50-27h125l-5 27H11" id="bC"/><g id="Y"><use transform="matrix(0.05,0,0,0.05,0,0)" xlink:href="#bC"/><use transform="matrix(0.05,0,0,0.05,10,0)" xlink:href="#ar"/><use transform="matrix(0.05,0,0,0.05,13.949999999999998,0)" xlink:href="#bh"/><use transform="matrix(0.05,0,0,0.05,23.95,0)" xlink:href="#av"/><use transform="matrix(0.05,0,0,0.05,33.95,0)" xlink:href="#ay"/><use transform="matrix(0.05,0,0,0.05,37.900000000000006,0)" xlink:href="#ay"/><use transform="matrix(0.05,0,0,0.05,41.85000000000001,0)" xlink:href="#av"/></g><g id="Z"><use transform="matrix(0.05,0,0,0.05,0,0)" xlink:href="#aD"/><use transform="matrix(0.05,0,0,0.05,10,0)" xlink:href="#av"/><use transform="matrix(0.05,0,0,0.05,20,0)" xlink:href="#aH"/><use transform="matrix(0.05,0,0,0.05,30,0)" xlink:href="#ax"/><use transform="matrix(0.05,0,0,0.05,40,0)" xlink:href="#al"/><use transform="matrix(0.05,0,0,0.05,45.95,0)" xlink:href="#aq"/><use transform="matrix(0.05,0,0,0.05,50.95,0)" xlink:href="#ak"/><use transform="matrix(0.05,0,0,0.05,60.95,0)" xlink:href="#ao"/><use transform="matrix(0.05,0,0,0.05,75.9,0)" xlink:href="#ak"/><use transform="matrix(0.05,0,0,0.05,85.9,0)" xlink:href="#as"/><use transform="matrix(0.05,0,0,0.05,95.9,0)" xlink:href="#aq"/></g><g id="aa"><use transform="matrix(0.05,0,0,0.05,0,0)" xlink:href="#am"/><use transform="matrix(0.05,0,0,0.05,12.950000000000001,0)" xlink:href="#an"/><use transform="matrix(0.05,0,0,0.05,22.950000000000003,0)" xlink:href="#ao"/></g><g id="ab"><use transform="matrix(0.05,0,0,0.05,0,0)" xlink:href="#an"/><use transform="matrix(0.05,0,0,0.05,10,0)" xlink:href="#aA"/><use transform="matrix(0.05,0,0,0.05,15,0)" xlink:href="#aA"/><use transform="matrix(0.05,0,0,0.05,20,0)" xlink:href="#ar"/><use transform="matrix(0.05,0,0,0.05,23.95,0)" xlink:href="#aB"/><use transform="matrix(0.05,0,0,0.05,32.95,0)" xlink:href="#ar"/><use transform="matrix(0.05,0,0,0.05,36.900000000000006,0)" xlink:href="#ak"/><use transform="matrix(0.05,0,0,0.05,46.900000000000006,0)" xlink:href="#ay"/></g><g id="ac"><use transform="matrix(0.05,0,0,0.05,0,0)" xlink:href="#aB"/><use transform="matrix(0.05,0,0,0.05,9,0)" xlink:href="#an"/><use transform="matrix(0.05,0,0,0.05,19,0)" xlink:href="#ao"/><use transform="matrix(0.05,0,0,0.05,33.95,0)" xlink:href="#ao"/><use transform="matrix(0.05,0,0,0.05,48.900000000000006,0)" xlink:href="#bg"/><use transform="matrix(0.05,0,0,0.05,58.900000000000006,0)" xlink:href="#as"/><use transform="matrix(0.05,0,0,0.05,68.9,0)" xlink:href="#ak"/></g><g id="ad"><use transform="matrix(0.05,0,0,0.05,0,0)" xlink:href="#aC"/><use transform="matrix(0.05,0,0,0.05,12.950000000000001,0)" xlink:href="#an"/><use transform="matrix(0.05,0,0,0.05,22.950000000000003,0)" xlink:href="#aD"/><use transform="matrix(0.05,0,0,0.05,32.95,0)" xlink:href="#ak"/></g><g id="ae"><use transform="matrix(0.05,0,0,0.05,0,0)" xlink:href="#aB"/><use transform="matrix(0.05,0,0,0.05,9,0)" xlink:href="#an"/><use transform="matrix(0.05,0,0,0.05,19,0)" xlink:href="#ao"/><use transform="matrix(0.05,0,0,0.05,33.95,0)" xlink:href="#ao"/><use transform="matrix(0.05,0,0,0.05,48.900000000000006,0)" xlink:href="#bg"/><use transform="matrix(0.05,0,0,0.05,58.900000000000006,0)" xlink:href="#as"/><use transform="matrix(0.05,0,0,0.05,68.9,0)" xlink:href="#ak"/></g><g id="af"><use transform="matrix(0.05,0,0,0.05,0,0)" xlink:href="#aE"/><use transform="matrix(0.05,0,0,0.05,10.950000000000001,0)" xlink:href="#av"/><use transform="matrix(0.05,0,0,0.05,20.950000000000003,0)" xlink:href="#ay"/><use transform="matrix(0.05,0,0,0.05,24.900000000000002,0)" xlink:href="#av"/><use transform="matrix(0.05,0,0,0.05,34.900000000000006,0)" xlink:href="#aH"/><use transform="matrix(0.05,0,0,0.05,44.900000000000006,0)" xlink:href="#aG"/><use transform="matrix(0.05,0,0,0.05,54.900000000000006,0)" xlink:href="#an"/><use transform="matrix(0.05,0,0,0.05,64.9,0)" xlink:href="#as"/><use transform="matrix(0.05,0,0,0.05,74.9,0)" xlink:href="#ak"/></g><g id="ag"><use transform="matrix(0.05,0,0,0.05,0,0)" xlink:href="#bx"/><use transform="matrix(0.05,0,0,0.05,12,0)" xlink:href="#aD"/><use transform="matrix(0.05,0,0,0.05,22,0)" xlink:href="#al"/><use transform="matrix(0.05,0,0,0.05,27.950000000000003,0)" xlink:href="#ak"/><use transform="matrix(0.05,0,0,0.05,37.95,0)" xlink:href="#aj"/><use transform="matrix(0.05,0,0,0.05,46.95,0)" xlink:href="#aj"/><use transform="matrix(0.05,0,0,0.05,55.95,0)" xlink:href="#ak"/></g><g id="ah"><use transform="matrix(0.05,0,0,0.05,0,0)" xlink:href="#aB"/><use transform="matrix(0.05,0,0,0.05,9,0)" xlink:href="#an"/><use transform="matrix(0.05,0,0,0.05,19,0)" xlink:href="#an"/><use transform="matrix(0.05,0,0,0.05,29,0)" xlink:href="#al"/><use transform="matrix(0.05,0,0,0.05,34.95,0)" xlink:href="#aD"/></g></defs></g></svg>